<svg width="24" height="33" viewBox="0 0 24 33" fill="none" xmlns="http://www.w3.org/2000/svg">
<path fill-rule="evenodd" clip-rule="evenodd" d="M17.7078 10.7921C17.8009 10.885 17.8748 10.9953 17.9252 11.1168C17.9756 11.2383 18.0016 11.3685 18.0016 11.5001C18.0016 11.6316 17.9756 11.7619 17.9252 11.8833C17.8748 12.0048 17.8009 12.1152 17.7078 12.2081L11.7078 18.2081C11.6149 18.3012 11.5046 18.3751 11.3831 18.4255C11.2616 18.4759 11.1313 18.5019 10.9998 18.5019C10.8683 18.5019 10.738 18.4759 10.6165 18.4255C10.495 18.3751 10.3847 18.3012 10.2918 18.2081L7.2918 15.2081C7.19882 15.1151 7.12507 15.0047 7.07475 14.8832C7.02443 14.7618 6.99854 14.6316 6.99854 14.5001C6.99854 14.3686 7.02443 14.2384 7.07475 14.1169C7.12507 13.9954 7.19882 13.8851 7.2918 13.7921C7.38477 13.6991 7.49515 13.6253 7.61663 13.575C7.73811 13.5247 7.86831 13.4988 7.9998 13.4988C8.13129 13.4988 8.26149 13.5247 8.38297 13.575C8.50444 13.6253 8.61482 13.6991 8.7078 13.7921L10.9998 16.0861L16.2918 10.7921C16.3847 10.699 16.495 10.6251 16.6165 10.5747C16.738 10.5242 16.8683 10.4983 16.9998 10.4983C17.1313 10.4983 17.2616 10.5242 17.3831 10.5747C17.5046 10.6251 17.6149 10.699 17.7078 10.7921Z" fill="#F24405"/>
<path d="M0 4.5C0 3.43913 0.421427 2.42172 1.17157 1.67157C1.92172 0.921427 2.93913 0.5 4 0.5L20 0.5C21.0609 0.5 22.0783 0.921427 22.8284 1.67157C23.5786 2.42172 24 3.43913 24 4.5V31.5C23.9999 31.6809 23.9508 31.8584 23.8578 32.0135C23.7648 32.1687 23.6315 32.2957 23.472 32.3811C23.3125 32.4665 23.1329 32.507 22.9522 32.4983C22.7715 32.4897 22.5966 32.4322 22.446 32.332L12 26.702L1.554 32.332C1.40341 32.4322 1.22846 32.4897 1.04778 32.4983C0.867105 32.507 0.687466 32.4665 0.527999 32.3811C0.368532 32.2957 0.235208 32.1687 0.142228 32.0135C0.0492481 31.8584 9.34408e-05 31.6809 0 31.5V4.5ZM4 2.5C3.46957 2.5 2.96086 2.71071 2.58579 3.08579C2.21071 3.46086 2 3.96957 2 4.5V29.632L11.446 24.668C11.6101 24.5588 11.8029 24.5005 12 24.5005C12.1971 24.5005 12.3899 24.5588 12.554 24.668L22 29.632V4.5C22 3.96957 21.7893 3.46086 21.4142 3.08579C21.0391 2.71071 20.5304 2.5 20 2.5H4Z" fill="#F24405"/>
</svg>
