<svg width="40" height="40" viewBox="0 0 40 40" fill="none" xmlns="http://www.w3.org/2000/svg">
<circle cx="20" cy="20" r="20" fill="url(#paint0_linear_0_2029)"/>
<mask id="mask0_0_2029" style="mask-type:alpha" maskUnits="userSpaceOnUse" x="8" y="8" width="25" height="25">
<rect x="8" y="8" width="25" height="25" fill="#C4C4C4"/>
</mask>
<g mask="url(#mask0_0_2029)">
<path d="M20.9118 12.3877C19.6033 12.5918 18.5737 13.3583 18.029 14.5332C17.6371 15.3857 17.5574 15.905 17.5574 17.6709V18.921H16.4315C15.8071 18.921 15.2657 18.9353 15.2225 18.9532C15.176 18.9747 15.1063 19.0248 15.0697 19.0678C15 19.1466 15 19.1717 15 20.7978C15 22.3094 15.0066 22.4562 15.0598 22.5243C15.1727 22.6783 15.2159 22.6819 16.4082 22.6819H17.5574V26.5503V30.4187L17.6537 30.5333L17.75 30.6515L19.2977 30.6622C20.6627 30.6694 20.8587 30.6658 20.9484 30.6157C21.1543 30.5011 21.1443 30.6801 21.1443 26.4965V22.6819H22.4728C23.4293 22.6819 23.8213 22.6711 23.8844 22.6389C24.067 22.5494 24.067 22.535 24.067 20.7871V19.1717L23.9707 19.0571L23.8744 18.9389L22.506 18.9281L21.141 18.9174L21.151 17.7604L21.1609 16.6071L21.2606 16.3958C21.3702 16.1665 21.5528 16.0125 21.7986 15.9409C21.8684 15.9194 22.3599 15.8979 22.888 15.8907C23.4194 15.88 23.8877 15.8656 23.9275 15.8549C23.9707 15.8441 24.0438 15.794 24.087 15.7439L24.1667 15.6507V14.1034C24.1667 12.5847 24.1667 12.556 24.0969 12.4772C24.0604 12.4342 23.9906 12.3841 23.9441 12.3626C23.8113 12.3089 21.2838 12.3304 20.9118 12.3877Z" fill="white"/>
</g>
<defs>
<linearGradient id="paint0_linear_0_2029" x1="15.1171" y1="37.2407" x2="19.7348" y2="1.69071" gradientUnits="userSpaceOnUse">
<stop stop-color="#4A4A4A"/>
<stop offset="1" stop-color="#4A4A4A"/>
</linearGradient>
</defs>
</svg>
