<svg width="40" height="40" viewBox="0 0 40 40" fill="none" xmlns="http://www.w3.org/2000/svg">
<circle cx="20" cy="20" r="20" fill="#4A4A4A"/>
<path d="M29.7821 30.1087V30.108H29.7867V23.3842C29.7867 20.0949 29.0785 17.5611 25.2331 17.5611C23.3845 17.5611 22.144 18.5755 21.6375 19.5373H21.584V17.8682H17.938V30.108H21.7345V24.0473C21.7345 22.4515 22.037 20.9085 24.0132 20.9085C25.9604 20.9085 25.9894 22.7296 25.9894 24.1496V30.1087H29.7821Z" fill="white"/>
<path d="M11.6367 17.869H15.4378V30.1088H11.6367V17.869Z" fill="white"/>
<path d="M13.535 11.4707C12.3197 11.4707 11.3335 12.4569 11.3335 13.6722C11.3335 14.8876 12.3197 15.8944 13.535 15.8944C14.7504 15.8944 15.7366 14.8876 15.7366 13.6722C15.7358 12.4569 14.7496 11.4707 13.535 11.4707V11.4707Z" fill="white"/>
</svg>
