<svg width="507" height="568" viewBox="0 0 507 568" fill="none" xmlns="http://www.w3.org/2000/svg">
<path fill-rule="evenodd" clip-rule="evenodd" d="M278.147 465.432C302.772 401.279 439.693 418.388 412.954 482.596C495.793 444.098 489.191 524.289 425.788 538.201C346.614 555.31 101.638 554.239 68.4754 538.201C34.2416 510.391 80.239 457.996 171.177 484.695C146.565 359.572 250.337 403.42 278.147 465.432Z" fill="#FFEFEA"/>
<path fill-rule="evenodd" clip-rule="evenodd" d="M117.465 146.3H202.569C203.2 109.051 219.343 91.0512 249.774 91.0512C277.104 91.0512 293.246 102.85 293.246 128.917C293.246 188.502 216.858 194.099 216.858 289.684H299.45C299.45 217.066 395.096 204.622 395.096 110.917C395.096 41.3998 343.553 2.28516 260.33 2.28516C171.52 2.28516 118.11 55.0509 117.493 146.341L117.465 146.3ZM256.583 336.866C225.52 336.866 203.791 358.584 203.791 390.235C203.791 421.886 225.52 444.249 256.583 444.249C287.646 444.249 309.992 421.9 309.992 390.235C309.992 358.57 287.577 336.866 256.528 336.866H256.583Z" fill="#FFD8CA"/>
<path fill-rule="evenodd" clip-rule="evenodd" d="M390.772 518.172C395.783 505.688 390.855 464.09 378.35 465.859C361.576 468.233 372.173 511.313 390.772 518.172Z" fill="#C9DAF0"/>
<path fill-rule="evenodd" clip-rule="evenodd" d="M393.586 519.007C400.559 507.51 436.824 502.709 442.919 513.767C451.114 528.597 410.264 529.75 393.586 519.007Z" fill="#FFCFBE"/>
<path fill-rule="evenodd" clip-rule="evenodd" d="M413.435 480.704C422.769 475.422 433.462 445.554 423.881 442.44C412.433 438.694 405.254 467.176 413.435 480.704Z" fill="#FFCFBE"/>
<path fill-rule="evenodd" clip-rule="evenodd" d="M415.164 482.28C422.247 474.213 454.971 470.742 454.724 480.812C454.518 490.58 423.853 490.237 415.164 482.28Z" fill="#FFCFBE"/>
<path fill-rule="evenodd" clip-rule="evenodd" d="M398.692 498.128C407.203 490.047 412.048 456.255 402.81 453.827C390.264 450.548 386.503 485.931 398.692 498.128Z" fill="#FFCFBE"/>
<path fill-rule="evenodd" clip-rule="evenodd" d="M401.053 499.061C410.044 489.182 446.351 485.163 445.884 494.437C445.184 508.87 412.227 506.62 401.053 499.061Z" fill="#FFCFBE"/>
<path fill-rule="evenodd" clip-rule="evenodd" d="M491.346 410.268C493.323 404.931 488.34 388.755 483.385 390.745C476.714 393.42 483.399 407.592 491.346 410.268Z" fill="#FFCFBE"/>
<path fill-rule="evenodd" clip-rule="evenodd" d="M492.581 410.389C493.021 404.709 501.764 394.323 505.594 398.041C510.687 403.131 500.927 411.253 492.581 410.389Z" fill="#FFCFBE"/>
<path fill-rule="evenodd" clip-rule="evenodd" d="M483.014 427.169C486.638 421.612 483.494 402.158 477.455 403.626C469.37 405.574 474.696 422.079 483.014 427.169Z" fill="#FFCFBE"/>
<path fill-rule="evenodd" clip-rule="evenodd" d="M484.4 427.622C486.35 421.297 501.833 409.525 505.196 415.493C509.286 422.765 493.638 430.763 484.4 427.622Z" fill="#FFCFBE"/>
<path fill-rule="evenodd" clip-rule="evenodd" d="M471.1 440.753C476.261 435.704 474.38 412.298 467.695 413.313C458.842 414.672 463.454 433.371 471.1 440.753Z" fill="#FFCFBE"/>
<path fill-rule="evenodd" clip-rule="evenodd" d="M472.458 441.561C476.041 435.291 493.803 427.279 496.411 433.796C499.802 442.22 481.545 447.077 472.458 441.561Z" fill="#FFCFBE"/>
<path fill-rule="evenodd" clip-rule="evenodd" d="M453.214 453.866C460.516 449.133 465.993 424.451 458.128 422.311C448.19 419.485 445.939 443.33 453.214 453.866Z" fill="#FFCFBE"/>
<path fill-rule="evenodd" clip-rule="evenodd" d="M454.628 455.157C460.352 448.599 482.424 441.629 484.414 449.066C487.269 459.63 464.044 463.828 454.628 455.157Z" fill="#FFCFBE"/>
<path fill-rule="evenodd" clip-rule="evenodd" d="M433.352 465.637C441.931 460.973 450.647 436.826 442.878 431.928C433.036 425.768 426.118 453.194 433.352 465.637Z" fill="#FFCFBE"/>
<path fill-rule="evenodd" clip-rule="evenodd" d="M434.821 467.177C441.794 460.318 470.07 459.44 468.56 467.342C466.762 476.685 444.594 477.742 434.821 467.177Z" fill="#FFCFBE"/>
<path fill-rule="evenodd" clip-rule="evenodd" d="M389.427 545.169C389.427 550.836 397.306 550.136 396.057 544.223C385.748 453.495 486.116 479.452 496.137 394.349C496.548 390.878 493.46 390.59 493.048 394.048C483.412 475.899 378.624 450.024 389.427 545.169Z" fill="#FFCFBE"/>
<path fill-rule="evenodd" clip-rule="evenodd" d="M494.16 398.084C503.164 392.596 502.602 378.273 497.331 377.395C490.989 376.352 488.491 392.28 494.16 398.084Z" fill="#FFCFBE"/>
<path fill-rule="evenodd" clip-rule="evenodd" d="M348.358 528.462C348.262 529.765 349.977 529.477 352.187 527.803C354.397 526.13 356.305 523.687 356.305 522.412C357.307 508.994 372.489 467.533 397.086 423.63C413.764 393.955 434.67 363.428 458.142 340.448C460.228 338.404 461.326 336.332 460.585 335.687C459.844 335.043 457.551 336.277 455.465 338.322C429.893 363.332 407.615 395.724 390.1 426.909C364.953 471.8 349.442 514.55 348.358 528.462Z" fill="#FCBCA5"/>
<path fill-rule="evenodd" clip-rule="evenodd" d="M384.348 455.582C395.33 458.203 434.848 453.003 435.932 438.968C437.305 421.681 390.47 447.735 384.335 450.588C377.293 453.867 378.185 454.1 384.348 455.582Z" fill="#FCBCA5"/>
<path fill-rule="evenodd" clip-rule="evenodd" d="M396.99 428.981C406.215 431.19 439.542 426.813 440.407 415C441.533 400.458 402.152 422.381 396.99 424.782C391.061 427.54 391.816 427.718 396.99 428.981Z" fill="#FCBCA5"/>
<path fill-rule="evenodd" clip-rule="evenodd" d="M410.099 405.973C418.239 407.921 447.613 404.052 448.423 393.625C449.412 380.783 414.643 400.128 410.085 402.255C404.869 404.697 405.528 404.875 410.099 405.973Z" fill="#FCBCA5"/>
<path fill-rule="evenodd" clip-rule="evenodd" d="M424.718 386.558C431.059 388.081 453.9 385.076 454.532 376.954C455.3 366.953 428.259 382.017 424.718 383.663C420.641 385.543 421.163 385.68 424.718 386.558Z" fill="#FCBCA5"/>
<path fill-rule="evenodd" clip-rule="evenodd" d="M438.87 367.955C444.127 369.217 463.069 366.72 463.577 359.997C464.223 351.766 441.807 364.196 438.87 365.568C435.493 367.132 435.919 367.241 438.87 367.955Z" fill="#FCBCA5"/>
<path fill-rule="evenodd" clip-rule="evenodd" d="M450.427 351.478C454.23 352.398 467.97 350.587 468.34 345.716C468.807 339.707 452.555 348.762 450.427 349.75C447.984 350.888 448.272 350.971 450.427 351.478Z" fill="#FCBCA5"/>
<path fill-rule="evenodd" clip-rule="evenodd" d="M458.032 339.156C462.369 337.387 475.163 326.658 472.774 322.254C469.837 316.835 458.622 335.411 457.044 337.675C455.232 340.281 455.589 340.144 458.032 339.156Z" fill="#FCBCA5"/>
<path fill-rule="evenodd" clip-rule="evenodd" d="M374.15 449.393C366.861 440.654 353.395 402.417 365.173 395.05C379.668 385.967 378.213 440.324 378.515 447.184C378.844 455.004 378.268 454.305 374.15 449.393Z" fill="#B8CCE6"/>
<path fill-rule="evenodd" clip-rule="evenodd" d="M388.343 423.602C382.454 416.001 372.091 383.335 382.125 377.449C394.478 370.191 391.98 416.001 392.063 421.805C392.159 428.418 391.664 427.814 388.343 423.602Z" fill="#B8CCE6"/>
<path fill-rule="evenodd" clip-rule="evenodd" d="M402.824 399.441C398.212 392.211 391.431 362.398 400.559 357.926C411.829 352.438 406.503 392.979 406.173 398.151C405.817 404.065 405.419 403.488 402.824 399.441Z" fill="#FCBCA5"/>
<path fill-rule="evenodd" clip-rule="evenodd" d="M417.305 381.318C413.833 375.624 408.96 352.219 416.111 348.912C424.924 344.796 420.229 376.352 419.927 380.371C419.57 384.981 419.268 384.528 417.305 381.318Z" fill="#FCBCA5"/>
<path fill-rule="evenodd" clip-rule="evenodd" d="M432.583 362.605C429.605 357.954 425.212 338.692 431.101 335.838C438.362 332.312 434.958 358.434 434.752 361.768C434.546 365.596 434.258 365.212 432.583 362.605Z" fill="#FCBCA5"/>
<path fill-rule="evenodd" clip-rule="evenodd" d="M445.815 346.565C443.811 343.067 441.203 328.895 445.527 327.015C450.867 324.696 447.641 343.602 447.394 346.03C447.119 348.802 446.9 348.514 445.815 346.565Z" fill="#FCBCA5"/>
<path fill-rule="evenodd" clip-rule="evenodd" d="M371.775 487.701C383.319 489.622 424.045 481.527 424.334 467.121C424.691 449.368 377.664 479.263 371.473 482.611C364.377 486.439 365.31 486.631 371.775 487.701Z" fill="#FCBCA5"/>
<path fill-rule="evenodd" clip-rule="evenodd" d="M359.051 481.939C351.666 474.256 336.827 439.408 347.575 431.807C360.835 422.409 362.4 473.158 363.059 479.552C363.8 486.864 363.168 486.261 359.051 481.939Z" fill="#FCBCA5"/>
<path fill-rule="evenodd" clip-rule="evenodd" d="M359.915 512.942C370.128 516.262 407.862 514.081 409.742 500.595C412.048 484.049 366.188 505.781 360.204 508.085C353.354 510.788 354.178 511.09 359.915 512.942Z" fill="#FCBCA5"/>
<path fill-rule="evenodd" clip-rule="evenodd" d="M351.144 509.513C341.892 503.147 319.971 470.549 330.17 460.534C342.73 448.186 353.217 499.841 355.029 506.248C357.101 513.588 356.305 513.08 351.144 509.513Z" fill="#FCBCA5"/>
<path fill-rule="evenodd" clip-rule="evenodd" d="M166.496 489.552C161.294 477.205 165.59 435.483 178.122 437.061C194.923 439.174 184.986 482.405 166.496 489.552Z" fill="#B8CCE6"/>
<path fill-rule="evenodd" clip-rule="evenodd" d="M163.682 490.444C156.544 479.043 120.211 474.79 114.267 485.93C106.319 500.885 147.183 501.434 163.682 490.444Z" fill="#FFCFBE"/>
<path fill-rule="evenodd" clip-rule="evenodd" d="M143.271 452.414C133.855 447.269 122.681 417.566 132.29 414.314C143.642 410.459 151.232 438.79 143.271 452.414Z" fill="#B8CCE6"/>
<path fill-rule="evenodd" clip-rule="evenodd" d="M141.555 454.031C134.362 446.074 101.625 443.055 101.982 453.167C102.366 462.935 132.99 462.126 141.555 454.031Z" fill="#B8CCE6"/>
<path fill-rule="evenodd" clip-rule="evenodd" d="M158.274 469.631C149.64 461.688 144.286 427.965 153.511 425.399C165.974 421.942 170.326 457.256 158.274 469.631Z" fill="#FFCFBE"/>
<path fill-rule="evenodd" clip-rule="evenodd" d="M155.899 470.66C146.757 460.919 110.41 457.448 111 466.709C111.975 481.074 144.918 478.33 155.899 470.66Z" fill="#FFCFBE"/>
<path fill-rule="evenodd" clip-rule="evenodd" d="M64.289 383.198C62.2437 377.875 67.0342 361.631 71.962 363.538C78.6743 366.103 72.1679 380.399 64.289 383.198Z" fill="#FFCFBE"/>
<path fill-rule="evenodd" clip-rule="evenodd" d="M63.0534 383.323C62.5456 377.657 53.6371 367.408 49.8761 371.236C44.8522 376.353 54.7215 384.324 63.0534 383.323Z" fill="#FFCFBE"/>
<path fill-rule="evenodd" clip-rule="evenodd" d="M72.8817 399.964C69.1756 394.476 72.0169 374.966 78.084 376.338C86.1963 378.163 81.1176 394.791 72.8817 399.964Z" fill="#FFCFBE"/>
<path fill-rule="evenodd" clip-rule="evenodd" d="M71.509 400.43C69.4501 394.133 53.8019 382.595 50.535 388.631C46.5544 395.958 62.3123 403.723 71.509 400.43Z" fill="#FFCFBE"/>
<path fill-rule="evenodd" clip-rule="evenodd" d="M85.0021 413.367C79.7723 408.401 81.2823 384.954 87.9945 385.928C96.8755 387.094 92.5379 405.876 85.0021 413.367Z" fill="#FFCFBE"/>
<path fill-rule="evenodd" clip-rule="evenodd" d="M83.657 414.189C79.992 407.974 62.1064 400.222 59.5808 406.794C56.3276 415.272 74.6524 419.855 83.657 414.189Z" fill="#FFCFBE"/>
<path fill-rule="evenodd" clip-rule="evenodd" d="M103.08 426.209C95.7086 421.586 89.8612 396.987 97.6852 394.654C107.582 391.787 110.204 415.549 103.08 426.209Z" fill="#FFCFBE"/>
<path fill-rule="evenodd" clip-rule="evenodd" d="M101.693 427.5C95.8733 421.038 73.7051 414.398 71.8109 421.875C69.1205 432.48 92.4006 436.335 101.693 427.5Z" fill="#FFCFBE"/>
<path fill-rule="evenodd" clip-rule="evenodd" d="M123.134 437.667C114.473 433.14 105.4 409.089 113.1 404.109C122.832 397.812 130.162 425.127 123.134 437.667Z" fill="#FFCFBE"/>
<path fill-rule="evenodd" clip-rule="evenodd" d="M121.679 439.242C114.61 432.506 86.3061 432.025 87.9533 439.901C89.8887 449.216 112.071 449.943 121.679 439.242Z" fill="#FFCFBE"/>
<path fill-rule="evenodd" clip-rule="evenodd" d="M168.253 516.525C168.253 522.191 160.443 521.615 161.609 515.674C170.545 424.823 70.5755 452.29 59.2649 367.338C58.7982 363.88 61.8867 363.551 62.3534 366.995C73.2247 448.695 177.614 421.229 168.253 516.525Z" fill="#FFCFBE"/>
<path fill-rule="evenodd" clip-rule="evenodd" d="M61.2966 371.056C52.2097 365.637 52.5666 351.368 57.8238 350.408C64.138 349.269 66.8695 365.156 61.2966 371.056Z" fill="#FFCFBE"/>
<path fill-rule="evenodd" clip-rule="evenodd" d="M168.596 537.475C169.79 537.818 169.859 536.171 168.747 533.771C167.635 531.37 165.755 529.161 164.547 528.804C152.193 525.182 116.504 502.737 80.6646 471.044C56.3413 449.669 32.0592 424.041 15.3404 397.535C13.8443 395.175 12.0873 393.734 11.3872 394.31C10.6872 394.887 11.3872 397.246 12.7599 399.606C30.9611 428.418 56.6845 455.665 82.2706 478.22C119.099 510.708 155.899 533.757 168.596 537.475Z" fill="#FFCFBE"/>
<path fill-rule="evenodd" clip-rule="evenodd" d="M107.857 489.457C112.51 479.771 115.571 441.905 102.709 438.077C86.8689 433.371 101.776 482.185 103.217 488.469C104.837 495.617 105.249 494.835 107.857 489.457Z" fill="#FFCFBE"/>
<path fill-rule="evenodd" clip-rule="evenodd" d="M85.5787 472.293C89.4907 464.144 92.0713 432.273 81.2411 429.062C67.9128 425.098 80.4587 466.106 81.6666 471.47C83.053 477.534 83.3962 476.875 85.5787 472.293Z" fill="#FFCFBE"/>
<path fill-rule="evenodd" clip-rule="evenodd" d="M66.7596 455.485C70.2049 448.296 72.4835 420.157 62.9299 417.331C51.1526 413.833 62.2299 450.08 63.3005 454.745C64.5222 460.095 64.8242 459.519 66.7596 455.485Z" fill="#FFCFBE"/>
<path fill-rule="evenodd" clip-rule="evenodd" d="M51.5781 437.98C54.3234 432.383 56.0255 410.541 48.5995 408.291C39.4439 405.547 48.0641 433.768 48.8877 437.404C49.8211 441.575 50.0545 441.122 51.5781 437.98Z" fill="#FFCFBE"/>
<path fill-rule="evenodd" clip-rule="evenodd" d="M37.0693 421.078C39.293 416.441 40.7617 398.29 34.5985 396.465C27.0078 394.215 34.1593 417.593 34.8456 420.598C35.628 424.055 35.8202 423.685 37.0693 421.078Z" fill="#FFCFBE"/>
<path fill-rule="evenodd" clip-rule="evenodd" d="M24.0293 407.014C25.6353 403.653 26.7059 390.551 22.2448 389.179C16.7543 387.532 21.9154 404.476 22.4096 406.671C22.9861 409.168 23.1233 408.894 24.0293 407.014Z" fill="#FFCFBE"/>
<path fill-rule="evenodd" clip-rule="evenodd" d="M14.0501 397.535C13.2814 393.131 5.81423 379.082 1.25705 380.413C-4.38451 382.073 10.6871 396.231 12.4853 398.152C14.5168 400.279 14.5168 399.936 14.0501 397.535Z" fill="#FFCFBE"/>
<path fill-rule="evenodd" clip-rule="evenodd" d="M100.046 497.687C90.4377 502.735 52.086 507.606 47.57 495.176C42.0794 479.851 92.3456 492.075 98.8108 493.173C106.209 494.421 105.441 494.847 100.046 497.687Z" fill="#FFCFBE"/>
<path fill-rule="evenodd" clip-rule="evenodd" d="M78.7979 479.263C70.562 483.241 38.0029 486.342 34.5164 475.819C30.2337 462.84 72.4425 474.365 77.8645 475.449C84.0963 476.683 83.4237 477.109 78.7979 479.263Z" fill="#FFCFBE"/>
<path fill-rule="evenodd" clip-rule="evenodd" d="M59.2101 460.949C51.5782 463.803 22.3409 464.146 20.0074 454.748C17.1798 443.168 53.8843 456.243 58.6336 457.574C64.1242 459.097 63.5065 459.358 59.2101 460.949Z" fill="#FFCFBE"/>
<path fill-rule="evenodd" clip-rule="evenodd" d="M45.2229 443.837C39.2107 445.936 16.3973 445.785 14.7639 438.459C12.7324 429.431 41.1736 440.105 44.8522 441.203C49.08 442.465 48.5996 442.657 45.2229 443.837Z" fill="#FFCFBE"/>
<path fill-rule="evenodd" clip-rule="evenodd" d="M30.8238 425.853C25.896 427.706 7.06334 427.939 5.56715 421.875C3.74154 414.411 27.4196 422.821 30.4806 423.672C33.9946 424.66 33.5965 424.824 30.8238 425.853Z" fill="#FFCFBE"/>
<path fill-rule="evenodd" clip-rule="evenodd" d="M18.5112 410.322C14.8599 411.502 1.11975 411.077 0.241257 406.673C-0.856858 401.185 16.1365 408.044 18.3327 408.744C20.8584 409.567 20.5701 409.663 18.5112 410.322Z" fill="#FFCFBE"/>
<path fill-rule="evenodd" clip-rule="evenodd" d="M135.31 507.539C139.427 497.181 140.004 457.627 126.634 454.471C110.163 450.589 128.625 500.364 130.505 506.798C132.564 514.152 132.99 513.342 135.31 507.539Z" fill="#FFCFBE"/>
<path fill-rule="evenodd" clip-rule="evenodd" d="M127.362 518.268C118.714 523.604 83.2862 530.451 78.3309 518.912C72.2089 504.685 119.853 513.424 125.934 514.056C132.907 514.81 132.207 515.263 127.362 518.268Z" fill="#FFCFBE"/>
<path fill-rule="evenodd" clip-rule="evenodd" d="M156.435 523.645C161.582 514.796 167.1 479.207 154.952 474.776C139.99 469.288 151.068 516.388 152.028 522.41C153.154 529.325 153.566 528.612 156.435 523.645Z" fill="#FFCFBE"/>
<path fill-rule="evenodd" clip-rule="evenodd" d="M151.493 531.121C143.71 538.461 108.941 552.359 101.625 540.862C92.634 526.689 142.887 527.266 149.214 526.854C156.476 526.388 155.899 527.019 151.493 531.121Z" fill="#C9DAF0"/>
<path d="M256.212 568C368.766 568 460.009 556.305 460.009 541.878C460.009 527.451 368.766 515.756 256.212 515.756C143.658 515.756 52.4155 527.451 52.4155 541.878C52.4155 556.305 143.658 568 256.212 568Z" fill="#FFC3AD"/>
<path fill-rule="evenodd" clip-rule="evenodd" d="M326.862 144.545C325.956 149.91 319.34 157.373 318.887 162.216C317.377 178.131 330.472 192.935 351.83 191.302C382.029 188.997 394.19 189.175 397.567 170.915C400.312 156.152 392.845 152.846 392.474 142.872C392.255 137.123 393.326 133.007 389.853 125.461C379.819 103.716 348.426 103.277 340.287 113.196C338.145 115.803 331.982 115.666 328.152 123.678C324.94 130.496 328.248 136.341 326.862 144.545Z" fill="#002E6C"/>
<path fill-rule="evenodd" clip-rule="evenodd" d="M355.729 291.317C347.809 299.247 330.156 301.47 321.111 299.81C323.197 275.91 326.107 265.922 355.729 291.317Z" fill="white"/>
<path fill-rule="evenodd" clip-rule="evenodd" d="M349.675 536.803C340.822 542.538 317.981 545.501 306.931 543.361C300.754 542.154 300.343 533.25 308.455 529.82C321.971 524.049 336.014 519.601 350.389 516.539C351.679 523.756 353.56 534.251 349.675 536.803Z" fill="#184F96"/>
<path fill-rule="evenodd" clip-rule="evenodd" d="M335.139 520.241C312.257 526.552 349.826 534.523 350.883 520.845C349.511 453.811 354.315 456.829 351.638 407.562C350.499 386.557 322.497 387.929 323.362 410.649C324.844 455.663 339.367 496.081 335.139 520.241Z" fill="#BA8B80"/>
<path fill-rule="evenodd" clip-rule="evenodd" d="M391.994 546.228C385.996 551.715 360.876 556.174 349.758 554.555C343.526 553.636 343.169 544.952 351.13 541.11C364.22 534.677 377.906 529.535 391.994 525.758C393.586 532.865 395.494 543.086 391.994 546.228Z" fill="#184F96"/>
<path fill-rule="evenodd" clip-rule="evenodd" d="M392.598 528.35C390.1 481.196 393.627 453.592 391.376 416.933C390.086 395.915 360.313 396.82 362.139 419.526C365.337 458.915 376.936 505.507 377.307 530.024C355.688 537.474 389.249 542.962 392.598 528.35Z" fill="#BA8B80"/>
<path fill-rule="evenodd" clip-rule="evenodd" d="M404.54 424.506C400.779 379.163 409.029 320.141 386.023 284.936C364.5 275.744 337.473 278.612 325.242 278.461C309.498 322.652 316.677 385.639 313.63 426.441C326.107 428.814 389.661 439.666 404.54 424.506Z" fill="#F08156"/>
<g opacity="0.5">
<path opacity="0.4" fill-rule="evenodd" clip-rule="evenodd" d="M308.263 426.496C308.833 426.496 309.39 426.665 309.864 426.982C310.338 427.298 310.708 427.748 310.926 428.275C311.144 428.801 311.201 429.38 311.09 429.939C310.979 430.498 310.704 431.012 310.301 431.414C309.898 431.817 309.384 432.092 308.825 432.203C308.266 432.314 307.686 432.257 307.159 432.039C306.633 431.821 306.183 431.452 305.866 430.978C305.549 430.504 305.38 429.947 305.38 429.377C305.38 428.999 305.455 428.624 305.599 428.275C305.744 427.925 305.957 427.608 306.224 427.34C306.492 427.072 306.81 426.86 307.159 426.715C307.509 426.571 307.884 426.496 308.263 426.496Z" fill="white"/>
<path opacity="0.4" fill-rule="evenodd" clip-rule="evenodd" d="M325.228 426.496C325.798 426.496 326.356 426.665 326.83 426.982C327.304 427.298 327.673 427.748 327.891 428.275C328.11 428.801 328.167 429.38 328.056 429.939C327.944 430.498 327.67 431.012 327.267 431.414C326.863 431.817 326.35 432.092 325.791 432.203C325.232 432.314 324.652 432.257 324.125 432.039C323.599 431.821 323.148 431.452 322.832 430.978C322.515 430.504 322.346 429.947 322.346 429.377C322.346 428.999 322.42 428.624 322.565 428.275C322.71 427.925 322.922 427.608 323.19 427.34C323.458 427.072 323.776 426.86 324.125 426.715C324.475 426.571 324.85 426.496 325.228 426.496Z" fill="white"/>
<path opacity="0.4" fill-rule="evenodd" clip-rule="evenodd" d="M342.153 426.496C342.723 426.496 343.281 426.665 343.755 426.982C344.229 427.298 344.598 427.748 344.816 428.275C345.035 428.801 345.092 429.38 344.98 429.939C344.869 430.498 344.595 431.012 344.191 431.414C343.788 431.817 343.275 432.092 342.716 432.203C342.156 432.314 341.577 432.257 341.05 432.039C340.523 431.821 340.073 431.452 339.756 430.978C339.44 430.504 339.271 429.947 339.271 429.377C339.274 428.614 339.579 427.883 340.119 427.344C340.659 426.804 341.39 426.5 342.153 426.496Z" fill="white"/>
<path opacity="0.4" fill-rule="evenodd" clip-rule="evenodd" d="M359.05 426.496C359.621 426.496 360.178 426.665 360.652 426.982C361.126 427.298 361.495 427.748 361.714 428.275C361.932 428.801 361.989 429.38 361.878 429.939C361.766 430.498 361.492 431.012 361.089 431.414C360.686 431.817 360.172 432.092 359.613 432.203C359.054 432.314 358.474 432.257 357.947 432.039C357.421 431.821 356.97 431.452 356.654 430.978C356.337 430.504 356.168 429.947 356.168 429.377C356.168 428.613 356.472 427.88 357.012 427.34C357.553 426.8 358.286 426.496 359.05 426.496Z" fill="white"/>
<path opacity="0.4" fill-rule="evenodd" clip-rule="evenodd" d="M376.016 426.496C376.586 426.496 377.144 426.665 377.618 426.982C378.092 427.298 378.461 427.748 378.679 428.275C378.898 428.801 378.955 429.38 378.843 429.939C378.732 430.498 378.458 431.012 378.054 431.414C377.651 431.817 377.138 432.092 376.579 432.203C376.019 432.314 375.44 432.257 374.913 432.039C374.386 431.821 373.936 431.452 373.619 430.978C373.303 430.504 373.134 429.947 373.134 429.377C373.134 428.613 373.437 427.88 373.978 427.34C374.518 426.8 375.252 426.496 376.016 426.496Z" fill="white"/>
<path opacity="0.4" fill-rule="evenodd" clip-rule="evenodd" d="M392.941 426.496C393.511 426.496 394.069 426.665 394.543 426.982C395.017 427.298 395.386 427.748 395.604 428.275C395.822 428.801 395.88 429.38 395.768 429.939C395.657 430.498 395.383 431.012 394.979 431.414C394.576 431.817 394.063 432.092 393.504 432.203C392.944 432.314 392.365 432.257 391.838 432.039C391.311 431.821 390.861 431.452 390.544 430.978C390.228 430.504 390.059 429.947 390.059 429.377C390.062 428.614 390.367 427.883 390.907 427.344C391.447 426.804 392.178 426.5 392.941 426.496Z" fill="white"/>
<path opacity="0.4" fill-rule="evenodd" clip-rule="evenodd" d="M409.838 426.496C410.408 426.496 410.966 426.665 411.44 426.982C411.914 427.298 412.283 427.748 412.502 428.275C412.72 428.801 412.777 429.38 412.666 429.939C412.554 430.498 412.28 431.012 411.877 431.414C411.474 431.817 410.96 432.092 410.401 432.203C409.842 432.314 409.262 432.257 408.735 432.039C408.209 431.821 407.758 431.452 407.442 430.978C407.125 430.504 406.956 429.947 406.956 429.377C406.956 428.999 407.03 428.624 407.175 428.275C407.32 427.925 407.532 427.608 407.8 427.34C408.068 427.072 408.386 426.86 408.735 426.715C409.085 426.571 409.46 426.496 409.838 426.496Z" fill="white"/>
<path opacity="0.4" fill-rule="evenodd" clip-rule="evenodd" d="M316.759 414.189C317.333 414.187 317.894 414.354 318.372 414.671C318.85 414.987 319.224 415.438 319.445 415.967C319.666 416.496 319.726 417.078 319.615 417.641C319.505 418.203 319.23 418.72 318.826 419.126C318.421 419.533 317.905 419.81 317.343 419.922C316.781 420.035 316.198 419.979 315.668 419.76C315.138 419.541 314.685 419.17 314.366 418.694C314.047 418.218 313.877 417.657 313.877 417.084C313.877 416.319 314.18 415.585 314.72 415.042C315.26 414.5 315.994 414.193 316.759 414.189Z" fill="white"/>
<path opacity="0.4" fill-rule="evenodd" clip-rule="evenodd" d="M333.698 414.189C334.271 414.187 334.832 414.354 335.31 414.671C335.789 414.987 336.162 415.438 336.383 415.967C336.605 416.496 336.664 417.078 336.554 417.641C336.443 418.203 336.169 418.72 335.764 419.126C335.36 419.533 334.844 419.81 334.281 419.922C333.719 420.035 333.136 419.979 332.606 419.76C332.076 419.541 331.623 419.17 331.304 418.694C330.985 418.218 330.815 417.657 330.815 417.084C330.815 416.319 331.118 415.585 331.659 415.042C332.199 414.5 332.932 414.193 333.698 414.189Z" fill="white"/>
<path opacity="0.4" fill-rule="evenodd" clip-rule="evenodd" d="M350.622 414.189C351.196 414.187 351.757 414.354 352.235 414.671C352.713 414.987 353.087 415.438 353.308 415.967C353.529 416.496 353.589 417.078 353.478 417.641C353.368 418.203 353.093 418.72 352.689 419.126C352.284 419.533 351.768 419.81 351.206 419.922C350.644 420.035 350.061 419.979 349.531 419.76C349.001 419.541 348.548 419.17 348.229 418.694C347.91 418.218 347.74 417.657 347.74 417.084C347.74 416.319 348.043 415.585 348.583 415.042C349.123 414.5 349.857 414.193 350.622 414.189Z" fill="white"/>
<path opacity="0.4" fill-rule="evenodd" clip-rule="evenodd" d="M367.547 414.189C368.121 414.187 368.682 414.354 369.16 414.671C369.638 414.987 370.011 415.438 370.233 415.967C370.454 416.496 370.513 417.078 370.403 417.641C370.293 418.203 370.018 418.72 369.614 419.126C369.209 419.533 368.693 419.81 368.131 419.922C367.569 420.035 366.986 419.979 366.456 419.76C365.926 419.541 365.473 419.17 365.154 418.694C364.835 418.218 364.665 417.657 364.665 417.084C364.668 416.32 364.973 415.588 365.512 415.046C366.051 414.504 366.782 414.197 367.547 414.189Z" fill="white"/>
<path opacity="0.4" fill-rule="evenodd" clip-rule="evenodd" d="M384.486 414.189C385.059 414.187 385.62 414.354 386.098 414.671C386.576 414.987 386.95 415.438 387.171 415.967C387.393 416.496 387.452 417.078 387.342 417.641C387.231 418.203 386.957 418.72 386.552 419.126C386.148 419.533 385.632 419.81 385.069 419.922C384.507 420.035 383.924 419.979 383.394 419.76C382.864 419.541 382.411 419.17 382.092 418.694C381.773 418.218 381.603 417.657 381.603 417.084C381.603 416.319 381.906 415.585 382.446 415.042C382.987 414.5 383.72 414.193 384.486 414.189Z" fill="white"/>
<path opacity="0.4" fill-rule="evenodd" clip-rule="evenodd" d="M401.41 414.189C401.984 414.187 402.545 414.354 403.023 414.671C403.501 414.987 403.874 415.438 404.096 415.967C404.317 416.496 404.376 417.078 404.266 417.641C404.156 418.203 403.881 418.72 403.477 419.126C403.072 419.533 402.556 419.81 401.994 419.922C401.432 420.035 400.849 419.979 400.319 419.76C399.789 419.541 399.336 419.17 399.017 418.694C398.698 418.218 398.528 417.657 398.528 417.084C398.528 416.319 398.831 415.585 399.371 415.042C399.911 414.5 400.644 414.193 401.41 414.189Z" fill="white"/>
<path opacity="0.4" fill-rule="evenodd" clip-rule="evenodd" d="M308.263 401.502C308.836 401.499 309.397 401.667 309.875 401.983C310.353 402.3 310.727 402.751 310.948 403.279C311.17 403.808 311.229 404.391 311.119 404.953C311.008 405.516 310.734 406.033 310.329 406.439C309.925 406.845 309.409 407.122 308.846 407.235C308.284 407.348 307.701 407.291 307.171 407.073C306.641 406.854 306.188 406.483 305.869 406.007C305.55 405.53 305.38 404.97 305.38 404.397C305.378 404.017 305.451 403.641 305.596 403.29C305.74 402.939 305.952 402.62 306.219 402.351C306.487 402.082 306.806 401.868 307.156 401.723C307.507 401.577 307.883 401.502 308.263 401.502Z" fill="white"/>
<path opacity="0.4" fill-rule="evenodd" clip-rule="evenodd" d="M325.228 401.502C325.802 401.499 326.363 401.667 326.841 401.983C327.319 402.3 327.693 402.751 327.914 403.279C328.135 403.808 328.195 404.391 328.084 404.953C327.974 405.516 327.699 406.033 327.295 406.439C326.89 406.845 326.374 407.122 325.812 407.235C325.25 407.348 324.667 407.291 324.137 407.073C323.607 406.854 323.154 406.483 322.835 406.007C322.516 405.53 322.346 404.97 322.346 404.397C322.344 404.017 322.417 403.641 322.561 403.29C322.705 402.939 322.917 402.62 323.185 402.351C323.453 402.082 323.771 401.868 324.122 401.723C324.473 401.577 324.849 401.502 325.228 401.502Z" fill="white"/>
<path opacity="0.4" fill-rule="evenodd" clip-rule="evenodd" d="M342.153 401.502C342.727 401.499 343.288 401.667 343.766 401.983C344.244 402.3 344.617 402.751 344.839 403.279C345.06 403.808 345.119 404.391 345.009 404.953C344.899 405.516 344.624 406.033 344.22 406.439C343.815 406.845 343.299 407.122 342.737 407.235C342.175 407.348 341.592 407.291 341.062 407.073C340.532 406.854 340.079 406.483 339.76 406.007C339.441 405.53 339.271 404.97 339.271 404.397C339.271 403.631 339.574 402.897 340.114 402.355C340.654 401.812 341.387 401.506 342.153 401.502Z" fill="white"/>
<path opacity="0.4" fill-rule="evenodd" clip-rule="evenodd" d="M359.05 401.502C359.624 401.499 360.185 401.667 360.663 401.983C361.141 402.3 361.515 402.751 361.736 403.279C361.957 403.808 362.017 404.391 361.906 404.953C361.796 405.516 361.521 406.033 361.117 406.439C360.712 406.845 360.196 407.122 359.634 407.235C359.072 407.348 358.489 407.291 357.959 407.073C357.429 406.854 356.976 406.483 356.657 406.007C356.338 405.53 356.168 404.97 356.168 404.397C356.166 404.017 356.239 403.641 356.383 403.29C356.527 402.939 356.739 402.62 357.007 402.351C357.275 402.082 357.594 401.868 357.944 401.723C358.295 401.577 358.671 401.502 359.05 401.502Z" fill="white"/>
<path opacity="0.4" fill-rule="evenodd" clip-rule="evenodd" d="M376.016 401.502C376.59 401.499 377.151 401.667 377.629 401.983C378.107 402.3 378.48 402.751 378.702 403.279C378.923 403.808 378.982 404.391 378.872 404.953C378.762 405.516 378.487 406.033 378.083 406.439C377.678 406.845 377.162 407.122 376.6 407.235C376.038 407.348 375.455 407.291 374.925 407.073C374.395 406.854 373.942 406.483 373.623 406.007C373.304 405.53 373.134 404.97 373.134 404.397C373.132 404.017 373.205 403.641 373.349 403.29C373.493 402.939 373.705 402.62 373.973 402.351C374.241 402.082 374.559 401.868 374.91 401.723C375.261 401.577 375.637 401.502 376.016 401.502Z" fill="white"/>
<path opacity="0.4" fill-rule="evenodd" clip-rule="evenodd" d="M392.941 401.502C393.515 401.499 394.076 401.667 394.554 401.983C395.032 402.3 395.405 402.751 395.627 403.279C395.848 403.808 395.907 404.391 395.797 404.953C395.687 405.516 395.412 406.033 395.008 406.439C394.603 406.845 394.087 407.122 393.525 407.235C392.963 407.348 392.38 407.291 391.85 407.073C391.32 406.854 390.867 406.483 390.548 406.007C390.229 405.53 390.059 404.97 390.059 404.397C390.059 403.631 390.362 402.897 390.902 402.355C391.442 401.812 392.175 401.506 392.941 401.502Z" fill="white"/>
<path opacity="0.4" fill-rule="evenodd" clip-rule="evenodd" d="M409.838 401.502C410.412 401.499 410.973 401.667 411.451 401.983C411.929 402.3 412.303 402.751 412.524 403.279C412.745 403.808 412.805 404.391 412.694 404.953C412.584 405.516 412.309 406.033 411.905 406.439C411.5 406.845 410.984 407.122 410.422 407.235C409.86 407.348 409.277 407.291 408.747 407.073C408.217 406.854 407.764 406.483 407.445 406.007C407.126 405.53 406.956 404.97 406.956 404.397C406.954 404.017 407.027 403.641 407.171 403.29C407.315 402.939 407.527 402.62 407.795 402.351C408.063 402.082 408.382 401.868 408.732 401.723C409.083 401.577 409.459 401.502 409.838 401.502Z" fill="white"/>
<path opacity="0.4" fill-rule="evenodd" clip-rule="evenodd" d="M316.759 389.209C317.33 389.209 317.887 389.378 318.361 389.695C318.835 390.011 319.204 390.461 319.423 390.988C319.641 391.514 319.698 392.093 319.587 392.652C319.475 393.211 319.201 393.724 318.798 394.127C318.395 394.53 317.881 394.805 317.322 394.916C316.763 395.027 316.183 394.97 315.656 394.752C315.13 394.534 314.679 394.165 314.363 393.691C314.046 393.217 313.877 392.66 313.877 392.09C313.877 391.326 314.181 390.593 314.721 390.053C315.262 389.513 315.995 389.209 316.759 389.209Z" fill="white"/>
<path opacity="0.4" fill-rule="evenodd" clip-rule="evenodd" d="M333.698 389.209C334.268 389.209 334.825 389.378 335.299 389.695C335.773 390.011 336.143 390.461 336.361 390.988C336.579 391.514 336.636 392.093 336.525 392.652C336.414 393.211 336.139 393.724 335.736 394.127C335.333 394.53 334.819 394.805 334.26 394.916C333.701 395.027 333.121 394.97 332.595 394.752C332.068 394.534 331.618 394.165 331.301 393.691C330.984 393.217 330.815 392.66 330.815 392.09C330.815 391.326 331.119 390.593 331.659 390.053C332.2 389.513 332.933 389.209 333.698 389.209Z" fill="white"/>
<path opacity="0.4" fill-rule="evenodd" clip-rule="evenodd" d="M350.622 389.209C351.193 389.209 351.75 389.378 352.224 389.695C352.698 390.011 353.067 390.461 353.286 390.988C353.504 391.514 353.561 392.093 353.45 392.652C353.338 393.211 353.064 393.724 352.661 394.127C352.258 394.53 351.744 394.805 351.185 394.916C350.626 395.027 350.046 394.97 349.519 394.752C348.993 394.534 348.542 394.165 348.226 393.691C347.909 393.217 347.74 392.66 347.74 392.09C347.74 391.326 348.044 390.593 348.584 390.053C349.125 389.513 349.858 389.209 350.622 389.209Z" fill="white"/>
<path opacity="0.4" fill-rule="evenodd" clip-rule="evenodd" d="M367.547 389.209C368.117 389.209 368.675 389.378 369.149 389.695C369.623 390.011 369.992 390.461 370.21 390.988C370.428 391.514 370.486 392.093 370.374 392.652C370.263 393.211 369.989 393.724 369.585 394.127C369.182 394.53 368.669 394.805 368.109 394.916C367.55 395.027 366.971 394.97 366.444 394.752C365.917 394.534 365.467 394.165 365.15 393.691C364.834 393.217 364.665 392.66 364.665 392.09C364.668 391.327 364.973 390.596 365.513 390.057C366.053 389.517 366.784 389.213 367.547 389.209Z" fill="white"/>
<path opacity="0.4" fill-rule="evenodd" clip-rule="evenodd" d="M384.486 389.209C385.056 389.209 385.613 389.378 386.087 389.695C386.561 390.011 386.931 390.461 387.149 390.988C387.367 391.514 387.424 392.093 387.313 392.652C387.202 393.211 386.927 393.724 386.524 394.127C386.121 394.53 385.607 394.805 385.048 394.916C384.489 395.027 383.909 394.97 383.383 394.752C382.856 394.534 382.406 394.165 382.089 393.691C381.772 393.217 381.603 392.66 381.603 392.09C381.603 391.326 381.907 390.593 382.447 390.053C382.988 389.513 383.721 389.209 384.486 389.209Z" fill="white"/>
<path opacity="0.4" fill-rule="evenodd" clip-rule="evenodd" d="M401.41 389.209C401.98 389.209 402.538 389.378 403.012 389.695C403.486 390.011 403.855 390.461 404.073 390.988C404.291 391.514 404.349 392.093 404.237 392.652C404.126 393.211 403.852 393.724 403.448 394.127C403.045 394.53 402.532 394.805 401.972 394.916C401.413 395.027 400.834 394.97 400.307 394.752C399.78 394.534 399.33 394.165 399.013 393.691C398.697 393.217 398.528 392.66 398.528 392.09C398.528 391.326 398.831 390.593 399.372 390.053C399.912 389.513 400.646 389.209 401.41 389.209Z" fill="white"/>
<path opacity="0.4" fill-rule="evenodd" clip-rule="evenodd" d="M308.263 376.518C308.833 376.518 309.39 376.687 309.864 377.003C310.338 377.32 310.708 377.77 310.926 378.296C311.144 378.823 311.201 379.402 311.09 379.961C310.979 380.52 310.704 381.033 310.301 381.436C309.898 381.839 309.384 382.113 308.825 382.224C308.266 382.336 307.686 382.279 307.159 382.061C306.633 381.842 306.183 381.473 305.866 380.999C305.549 380.526 305.38 379.969 305.38 379.399C305.38 379.02 305.455 378.646 305.599 378.296C305.744 377.947 305.957 377.629 306.224 377.361C306.492 377.094 306.81 376.882 307.159 376.737C307.509 376.592 307.884 376.518 308.263 376.518Z" fill="white"/>
<path opacity="0.4" fill-rule="evenodd" clip-rule="evenodd" d="M325.228 376.518C325.798 376.518 326.356 376.687 326.83 377.003C327.304 377.32 327.673 377.77 327.891 378.296C328.11 378.823 328.167 379.402 328.056 379.961C327.944 380.52 327.67 381.033 327.267 381.436C326.863 381.839 326.35 382.113 325.791 382.224C325.232 382.336 324.652 382.279 324.125 382.061C323.599 381.842 323.148 381.473 322.832 380.999C322.515 380.526 322.346 379.969 322.346 379.399C322.346 379.02 322.42 378.646 322.565 378.296C322.71 377.947 322.922 377.629 323.19 377.361C323.458 377.094 323.776 376.882 324.125 376.737C324.475 376.592 324.85 376.518 325.228 376.518Z" fill="white"/>
<path opacity="0.4" fill-rule="evenodd" clip-rule="evenodd" d="M342.153 376.518C342.723 376.518 343.281 376.687 343.755 377.003C344.229 377.32 344.598 377.77 344.816 378.296C345.035 378.823 345.092 379.402 344.98 379.961C344.869 380.52 344.595 381.033 344.191 381.436C343.788 381.839 343.275 382.113 342.716 382.224C342.156 382.336 341.577 382.279 341.05 382.061C340.523 381.842 340.073 381.473 339.756 380.999C339.44 380.526 339.271 379.969 339.271 379.399C339.274 378.636 339.579 377.905 340.119 377.365C340.659 376.826 341.39 376.521 342.153 376.518Z" fill="white"/>
<path opacity="0.4" fill-rule="evenodd" clip-rule="evenodd" d="M359.05 376.518C359.621 376.518 360.178 376.687 360.652 377.003C361.126 377.32 361.495 377.77 361.714 378.296C361.932 378.823 361.989 379.402 361.878 379.961C361.766 380.52 361.492 381.033 361.089 381.436C360.686 381.839 360.172 382.113 359.613 382.224C359.054 382.336 358.474 382.279 357.947 382.061C357.421 381.842 356.97 381.473 356.654 380.999C356.337 380.526 356.168 379.969 356.168 379.399C356.168 379.02 356.242 378.646 356.387 378.296C356.532 377.947 356.744 377.629 357.012 377.361C357.28 377.094 357.598 376.882 357.947 376.737C358.297 376.592 358.672 376.518 359.05 376.518Z" fill="white"/>
<path opacity="0.4" fill-rule="evenodd" clip-rule="evenodd" d="M376.016 376.518C376.586 376.518 377.144 376.687 377.618 377.003C378.092 377.32 378.461 377.77 378.679 378.296C378.898 378.823 378.955 379.402 378.843 379.961C378.732 380.52 378.458 381.033 378.054 381.436C377.651 381.839 377.138 382.113 376.579 382.224C376.019 382.336 375.44 382.279 374.913 382.061C374.386 381.842 373.936 381.473 373.619 380.999C373.303 380.526 373.134 379.969 373.134 379.399C373.134 379.02 373.208 378.646 373.353 378.296C373.498 377.947 373.71 377.629 373.978 377.361C374.246 377.094 374.563 376.882 374.913 376.737C375.263 376.592 375.638 376.518 376.016 376.518Z" fill="white"/>
<path opacity="0.4" fill-rule="evenodd" clip-rule="evenodd" d="M392.941 376.518C393.511 376.518 394.069 376.687 394.543 377.003C395.017 377.32 395.386 377.77 395.604 378.296C395.822 378.823 395.88 379.402 395.768 379.961C395.657 380.52 395.383 381.033 394.979 381.436C394.576 381.839 394.063 382.113 393.504 382.224C392.944 382.336 392.365 382.279 391.838 382.061C391.311 381.842 390.861 381.473 390.544 380.999C390.228 380.526 390.059 379.969 390.059 379.399C390.062 378.636 390.367 377.905 390.907 377.365C391.447 376.826 392.178 376.521 392.941 376.518Z" fill="white"/>
<path opacity="0.4" fill-rule="evenodd" clip-rule="evenodd" d="M409.838 376.518C410.408 376.518 410.966 376.687 411.44 377.003C411.914 377.32 412.283 377.77 412.502 378.296C412.72 378.823 412.777 379.402 412.666 379.961C412.554 380.52 412.28 381.033 411.877 381.436C411.474 381.839 410.96 382.113 410.401 382.224C409.842 382.336 409.262 382.279 408.735 382.061C408.209 381.842 407.758 381.473 407.442 380.999C407.125 380.526 406.956 379.969 406.956 379.399C406.956 379.02 407.03 378.646 407.175 378.296C407.32 377.947 407.532 377.629 407.8 377.361C408.068 377.094 408.386 376.882 408.735 376.737C409.085 376.592 409.46 376.518 409.838 376.518Z" fill="white"/>
<path opacity="0.4" fill-rule="evenodd" clip-rule="evenodd" d="M316.759 364.211C317.333 364.208 317.895 364.376 318.374 364.693C318.852 365.01 319.225 365.462 319.446 365.992C319.667 366.521 319.726 367.104 319.614 367.667C319.503 368.23 319.227 368.747 318.821 369.153C318.415 369.558 317.898 369.834 317.335 369.946C316.772 370.057 316.188 369.998 315.658 369.778C315.129 369.557 314.676 369.184 314.359 368.706C314.042 368.227 313.874 367.666 313.877 367.092C313.877 366.328 314.181 365.595 314.721 365.055C315.262 364.515 315.995 364.211 316.759 364.211Z" fill="white"/>
<path opacity="0.4" fill-rule="evenodd" clip-rule="evenodd" d="M333.698 364.211C334.272 364.208 334.833 364.376 335.312 364.693C335.79 365.01 336.164 365.462 336.385 365.992C336.605 366.521 336.664 367.104 336.553 367.667C336.441 368.23 336.165 368.747 335.759 369.153C335.353 369.558 334.836 369.834 334.273 369.946C333.71 370.057 333.126 369.998 332.597 369.778C332.067 369.557 331.615 369.184 331.297 368.706C330.98 368.227 330.812 367.666 330.815 367.092C330.815 366.328 331.119 365.595 331.659 365.055C332.2 364.515 332.933 364.211 333.698 364.211Z" fill="white"/>
<path opacity="0.4" fill-rule="evenodd" clip-rule="evenodd" d="M350.622 364.211C351.196 364.208 351.758 364.376 352.237 364.693C352.715 365.01 353.088 365.462 353.309 365.992C353.53 366.521 353.589 367.104 353.477 367.667C353.366 368.23 353.09 368.747 352.684 369.153C352.278 369.558 351.761 369.834 351.198 369.946C350.635 370.057 350.051 369.998 349.521 369.778C348.992 369.557 348.539 369.184 348.222 368.706C347.905 368.227 347.737 367.666 347.74 367.092C347.74 366.328 348.044 365.595 348.584 365.055C349.125 364.515 349.858 364.211 350.622 364.211Z" fill="white"/>
<path opacity="0.4" fill-rule="evenodd" clip-rule="evenodd" d="M367.547 364.211C368.121 364.208 368.683 364.376 369.161 364.693C369.64 365.01 370.013 365.462 370.234 365.992C370.455 366.521 370.513 367.104 370.402 367.667C370.291 368.23 370.015 368.747 369.609 369.153C369.203 369.558 368.686 369.834 368.123 369.946C367.559 370.057 366.976 369.998 366.446 369.778C365.916 369.557 365.464 369.184 365.147 368.706C364.83 368.227 364.662 367.666 364.665 367.092C364.668 366.329 364.973 365.598 365.513 365.059C366.053 364.519 366.784 364.215 367.547 364.211Z" fill="white"/>
<path opacity="0.4" fill-rule="evenodd" clip-rule="evenodd" d="M384.486 364.211C385.06 364.208 385.621 364.376 386.1 364.693C386.578 365.01 386.952 365.462 387.173 365.992C387.393 366.521 387.452 367.104 387.341 367.667C387.229 368.23 386.953 368.747 386.547 369.153C386.141 369.558 385.624 369.834 385.061 369.946C384.498 370.057 383.914 369.998 383.385 369.778C382.855 369.557 382.403 369.184 382.085 368.706C381.768 368.227 381.6 367.666 381.603 367.092C381.603 366.328 381.907 365.595 382.447 365.055C382.988 364.515 383.721 364.211 384.486 364.211Z" fill="white"/>
<path opacity="0.4" fill-rule="evenodd" clip-rule="evenodd" d="M401.41 364.211C401.984 364.208 402.546 364.376 403.024 364.693C403.503 365.01 403.876 365.462 404.097 365.992C404.318 366.521 404.376 367.104 404.265 367.667C404.154 368.23 403.878 368.747 403.472 369.153C403.066 369.558 402.549 369.834 401.986 369.946C401.422 370.057 400.839 369.998 400.309 369.778C399.779 369.557 399.327 369.184 399.01 368.706C398.693 368.227 398.525 367.666 398.528 367.092C398.528 366.328 398.831 365.595 399.372 365.055C399.912 364.515 400.646 364.211 401.41 364.211Z" fill="white"/>
<path opacity="0.4" fill-rule="evenodd" clip-rule="evenodd" d="M308.263 351.52C308.837 351.517 309.398 351.685 309.877 352.002C310.355 352.319 310.729 352.771 310.949 353.3C311.17 353.83 311.229 354.413 311.118 354.976C311.006 355.539 310.73 356.056 310.324 356.461C309.918 356.867 309.401 357.143 308.838 357.254C308.275 357.366 307.691 357.307 307.162 357.086C306.632 356.865 306.18 356.492 305.862 356.014C305.545 355.536 305.377 354.974 305.38 354.401C305.38 354.022 305.455 353.648 305.599 353.298C305.744 352.949 305.957 352.631 306.224 352.363C306.492 352.096 306.81 351.884 307.159 351.739C307.509 351.594 307.884 351.52 308.263 351.52Z" fill="white"/>
<path opacity="0.4" fill-rule="evenodd" clip-rule="evenodd" d="M325.228 351.52C325.802 351.517 326.364 351.685 326.843 352.002C327.321 352.319 327.694 352.771 327.915 353.3C328.136 353.83 328.195 354.413 328.083 354.976C327.972 355.539 327.696 356.056 327.29 356.461C326.884 356.867 326.367 357.143 325.804 357.254C325.241 357.366 324.657 357.307 324.127 357.086C323.598 356.865 323.145 356.492 322.828 356.014C322.511 355.536 322.343 354.974 322.346 354.401C322.346 354.022 322.42 353.648 322.565 353.298C322.71 352.949 322.922 352.631 323.19 352.363C323.458 352.096 323.776 351.884 324.125 351.739C324.475 351.594 324.85 351.52 325.228 351.52Z" fill="white"/>
<path opacity="0.4" fill-rule="evenodd" clip-rule="evenodd" d="M342.153 351.52C342.727 351.517 343.289 351.685 343.767 352.002C344.246 352.319 344.619 352.771 344.84 353.3C345.061 353.83 345.12 354.413 345.008 354.976C344.897 355.539 344.621 356.056 344.215 356.461C343.809 356.867 343.292 357.143 342.729 357.254C342.165 357.366 341.582 357.307 341.052 357.086C340.522 356.865 340.07 356.492 339.753 356.014C339.436 355.536 339.268 354.974 339.271 354.401C339.274 353.638 339.579 352.907 340.119 352.367C340.659 351.828 341.39 351.523 342.153 351.52Z" fill="white"/>
<path opacity="0.4" fill-rule="evenodd" clip-rule="evenodd" d="M359.05 351.52C359.624 351.517 360.186 351.685 360.665 352.002C361.143 352.319 361.516 352.771 361.737 353.3C361.958 353.83 362.017 354.413 361.905 354.976C361.794 355.539 361.518 356.056 361.112 356.461C360.706 356.867 360.189 357.143 359.626 357.254C359.063 357.366 358.479 357.307 357.949 357.086C357.42 356.865 356.967 356.492 356.65 356.014C356.333 355.536 356.165 354.974 356.168 354.401C356.168 353.637 356.472 352.904 357.012 352.363C357.553 351.823 358.286 351.52 359.05 351.52Z" fill="white"/>
<path opacity="0.4" fill-rule="evenodd" clip-rule="evenodd" d="M376.016 351.52C376.59 351.517 377.152 351.685 377.63 352.002C378.109 352.319 378.482 352.771 378.703 353.3C378.924 353.83 378.983 354.413 378.871 354.976C378.76 355.539 378.484 356.056 378.078 356.461C377.672 356.867 377.155 357.143 376.592 357.254C376.029 357.366 375.445 357.307 374.915 357.086C374.385 356.865 373.933 356.492 373.616 356.014C373.299 355.536 373.131 354.974 373.134 354.401C373.134 353.637 373.437 352.904 373.978 352.363C374.519 351.823 375.252 351.52 376.016 351.52Z" fill="white"/>
<path opacity="0.4" fill-rule="evenodd" clip-rule="evenodd" d="M392.941 351.52C393.515 351.517 394.077 351.685 394.555 352.002C395.034 352.319 395.407 352.771 395.628 353.3C395.849 353.83 395.908 354.413 395.796 354.976C395.685 355.539 395.409 356.056 395.003 356.461C394.597 356.867 394.08 357.143 393.517 357.254C392.953 357.366 392.37 357.307 391.84 357.086C391.31 356.865 390.858 356.492 390.541 356.014C390.224 355.536 390.056 354.974 390.059 354.401C390.062 353.638 390.367 352.907 390.907 352.367C391.447 351.828 392.178 351.523 392.941 351.52Z" fill="white"/>
<path opacity="0.4" fill-rule="evenodd" clip-rule="evenodd" d="M409.838 351.52C410.412 351.517 410.974 351.685 411.453 352.002C411.931 352.319 412.304 352.771 412.525 353.3C412.746 353.83 412.805 354.413 412.693 354.976C412.582 355.539 412.306 356.056 411.9 356.461C411.494 356.867 410.977 357.143 410.414 357.254C409.851 357.366 409.267 357.307 408.737 357.086C408.208 356.865 407.755 356.492 407.438 356.014C407.121 355.536 406.953 354.974 406.956 354.401C406.956 354.022 407.03 353.648 407.175 353.298C407.32 352.949 407.532 352.631 407.8 352.363C408.068 352.096 408.386 351.884 408.735 351.739C409.085 351.594 409.46 351.52 409.838 351.52Z" fill="white"/>
<path opacity="0.4" fill-rule="evenodd" clip-rule="evenodd" d="M316.759 339.227C317.33 339.227 317.887 339.396 318.361 339.712C318.835 340.029 319.204 340.479 319.423 341.005C319.641 341.532 319.698 342.111 319.587 342.67C319.475 343.229 319.201 343.742 318.798 344.145C318.395 344.548 317.881 344.822 317.322 344.933C316.763 345.045 316.183 344.988 315.656 344.77C315.13 344.551 314.679 344.182 314.363 343.708C314.046 343.235 313.877 342.678 313.877 342.108C313.877 341.344 314.181 340.611 314.721 340.07C315.262 339.53 315.995 339.227 316.759 339.227Z" fill="white"/>
<path opacity="0.4" fill-rule="evenodd" clip-rule="evenodd" d="M333.698 339.227C334.268 339.227 334.825 339.396 335.299 339.712C335.773 340.029 336.143 340.479 336.361 341.005C336.579 341.532 336.636 342.111 336.525 342.67C336.414 343.229 336.139 343.742 335.736 344.145C335.333 344.548 334.819 344.822 334.26 344.933C333.701 345.045 333.121 344.988 332.595 344.77C332.068 344.551 331.618 344.182 331.301 343.708C330.984 343.235 330.815 342.678 330.815 342.108C330.815 341.344 331.119 340.611 331.659 340.07C332.2 339.53 332.933 339.227 333.698 339.227Z" fill="white"/>
<path opacity="0.4" fill-rule="evenodd" clip-rule="evenodd" d="M350.622 339.227C351.193 339.227 351.75 339.396 352.224 339.712C352.698 340.029 353.067 340.479 353.286 341.005C353.504 341.532 353.561 342.111 353.45 342.67C353.338 343.229 353.064 343.742 352.661 344.145C352.258 344.548 351.744 344.822 351.185 344.933C350.626 345.045 350.046 344.988 349.519 344.77C348.993 344.551 348.542 344.182 348.226 343.708C347.909 343.235 347.74 342.678 347.74 342.108C347.74 341.344 348.044 340.611 348.584 340.07C349.125 339.53 349.858 339.227 350.622 339.227Z" fill="white"/>
<path opacity="0.4" fill-rule="evenodd" clip-rule="evenodd" d="M367.547 339.227C368.117 339.227 368.675 339.396 369.149 339.712C369.623 340.029 369.992 340.479 370.21 341.005C370.428 341.532 370.486 342.111 370.374 342.67C370.263 343.229 369.989 343.742 369.585 344.145C369.182 344.548 368.669 344.822 368.109 344.933C367.55 345.045 366.971 344.988 366.444 344.77C365.917 344.551 365.467 344.182 365.15 343.708C364.834 343.235 364.665 342.678 364.665 342.108C364.668 341.345 364.973 340.614 365.513 340.074C366.053 339.535 366.784 339.23 367.547 339.227Z" fill="white"/>
<path opacity="0.4" d="M384.486 344.989C386.078 344.989 387.368 343.699 387.368 342.108C387.368 340.516 386.078 339.227 384.486 339.227C382.894 339.227 381.603 340.516 381.603 342.108C381.603 343.699 382.894 344.989 384.486 344.989Z" fill="white"/>
<path opacity="0.4" fill-rule="evenodd" clip-rule="evenodd" d="M401.41 339.227C401.98 339.227 402.538 339.396 403.012 339.712C403.486 340.029 403.855 340.479 404.073 341.005C404.291 341.532 404.349 342.111 404.237 342.67C404.126 343.229 403.852 343.742 403.448 344.145C403.045 344.548 402.532 344.822 401.972 344.933C401.413 345.045 400.834 344.988 400.307 344.77C399.78 344.551 399.33 344.182 399.013 343.708C398.697 343.235 398.528 342.678 398.528 342.108C398.528 341.344 398.831 340.611 399.372 340.07C399.912 339.53 400.646 339.227 401.41 339.227Z" fill="white"/>
<path opacity="0.4" fill-rule="evenodd" clip-rule="evenodd" d="M308.263 326.537C308.833 326.537 309.39 326.706 309.864 327.023C310.338 327.339 310.708 327.789 310.926 328.316C311.144 328.842 311.201 329.421 311.09 329.98C310.979 330.539 310.704 331.053 310.301 331.456C309.898 331.858 309.384 332.133 308.825 332.244C308.266 332.355 307.686 332.298 307.159 332.08C306.633 331.862 306.183 331.493 305.866 331.019C305.549 330.545 305.38 329.988 305.38 329.418C305.38 329.04 305.455 328.665 305.599 328.316C305.744 327.966 305.957 327.649 306.224 327.381C306.492 327.113 306.81 326.901 307.159 326.756C307.509 326.612 307.884 326.537 308.263 326.537Z" fill="white"/>
<path opacity="0.4" fill-rule="evenodd" clip-rule="evenodd" d="M325.228 326.537C325.798 326.537 326.356 326.706 326.83 327.023C327.304 327.339 327.673 327.789 327.891 328.316C328.11 328.842 328.167 329.421 328.056 329.98C327.944 330.539 327.67 331.053 327.267 331.456C326.863 331.858 326.35 332.133 325.791 332.244C325.232 332.355 324.652 332.298 324.125 332.08C323.599 331.862 323.148 331.493 322.832 331.019C322.515 330.545 322.346 329.988 322.346 329.418C322.346 329.04 322.42 328.665 322.565 328.316C322.71 327.966 322.922 327.649 323.19 327.381C323.458 327.113 323.776 326.901 324.125 326.756C324.475 326.612 324.85 326.537 325.228 326.537Z" fill="white"/>
<path opacity="0.4" fill-rule="evenodd" clip-rule="evenodd" d="M342.153 326.537C342.723 326.537 343.281 326.706 343.755 327.023C344.229 327.339 344.598 327.789 344.816 328.316C345.035 328.842 345.092 329.421 344.98 329.98C344.869 330.539 344.595 331.053 344.191 331.456C343.788 331.858 343.275 332.133 342.716 332.244C342.156 332.355 341.577 332.298 341.05 332.08C340.523 331.862 340.073 331.493 339.756 331.019C339.44 330.545 339.271 329.988 339.271 329.418C339.274 328.655 339.579 327.924 340.119 327.385C340.659 326.845 341.39 326.541 342.153 326.537Z" fill="white"/>
<path opacity="0.4" fill-rule="evenodd" clip-rule="evenodd" d="M359.05 326.537C359.621 326.537 360.178 326.706 360.652 327.023C361.126 327.339 361.495 327.789 361.714 328.316C361.932 328.842 361.989 329.421 361.878 329.98C361.766 330.539 361.492 331.053 361.089 331.456C360.686 331.858 360.172 332.133 359.613 332.244C359.054 332.355 358.474 332.298 357.947 332.08C357.421 331.862 356.97 331.493 356.654 331.019C356.337 330.545 356.168 329.988 356.168 329.418C356.168 329.04 356.242 328.665 356.387 328.316C356.532 327.966 356.744 327.649 357.012 327.381C357.28 327.113 357.598 326.901 357.947 326.756C358.297 326.612 358.672 326.537 359.05 326.537Z" fill="white"/>
<path opacity="0.4" fill-rule="evenodd" clip-rule="evenodd" d="M376.016 326.537C376.586 326.537 377.144 326.706 377.618 327.023C378.092 327.339 378.461 327.789 378.679 328.316C378.898 328.842 378.955 329.421 378.843 329.98C378.732 330.539 378.458 331.053 378.054 331.456C377.651 331.858 377.138 332.133 376.579 332.244C376.019 332.355 375.44 332.298 374.913 332.08C374.386 331.862 373.936 331.493 373.619 331.019C373.303 330.545 373.134 329.988 373.134 329.418C373.134 329.04 373.208 328.665 373.353 328.316C373.498 327.966 373.71 327.649 373.978 327.381C374.246 327.113 374.563 326.901 374.913 326.756C375.263 326.612 375.638 326.537 376.016 326.537Z" fill="white"/>
<path opacity="0.4" fill-rule="evenodd" clip-rule="evenodd" d="M392.941 326.537C393.511 326.537 394.069 326.706 394.543 327.023C395.017 327.339 395.386 327.789 395.604 328.316C395.822 328.842 395.88 329.421 395.768 329.98C395.657 330.539 395.383 331.053 394.979 331.456C394.576 331.858 394.063 332.133 393.504 332.244C392.944 332.355 392.365 332.298 391.838 332.08C391.311 331.862 390.861 331.493 390.544 331.019C390.228 330.545 390.059 329.988 390.059 329.418C390.062 328.655 390.367 327.924 390.907 327.385C391.447 326.845 392.178 326.541 392.941 326.537Z" fill="white"/>
<path opacity="0.4" fill-rule="evenodd" clip-rule="evenodd" d="M409.838 326.537C410.408 326.537 410.966 326.706 411.44 327.023C411.914 327.339 412.283 327.789 412.502 328.316C412.72 328.842 412.777 329.421 412.666 329.98C412.554 330.539 412.28 331.053 411.877 331.456C411.474 331.858 410.96 332.133 410.401 332.244C409.842 332.355 409.262 332.298 408.735 332.08C408.209 331.862 407.758 331.493 407.442 331.019C407.125 330.545 406.956 329.988 406.956 329.418C406.956 329.04 407.03 328.665 407.175 328.316C407.32 327.966 407.532 327.649 407.8 327.381C408.068 327.113 408.386 326.901 408.735 326.756C409.085 326.612 409.46 326.537 409.838 326.537Z" fill="white"/>
<path opacity="0.4" fill-rule="evenodd" clip-rule="evenodd" d="M316.759 314.229C317.33 314.229 317.887 314.397 318.361 314.714C318.835 315.031 319.204 315.481 319.423 316.007C319.641 316.534 319.698 317.113 319.587 317.672C319.475 318.231 319.201 318.744 318.798 319.147C318.395 319.55 317.881 319.824 317.322 319.935C316.763 320.047 316.183 319.99 315.656 319.771C315.13 319.553 314.679 319.184 314.363 318.71C314.046 318.237 313.877 317.679 313.877 317.11C313.877 316.346 314.181 315.613 314.721 315.072C315.262 314.532 315.995 314.229 316.759 314.229Z" fill="white"/>
<path opacity="0.4" fill-rule="evenodd" clip-rule="evenodd" d="M333.698 314.229C334.268 314.229 334.825 314.397 335.299 314.714C335.773 315.031 336.143 315.481 336.361 316.007C336.579 316.534 336.636 317.113 336.525 317.672C336.414 318.231 336.139 318.744 335.736 319.147C335.333 319.55 334.819 319.824 334.26 319.935C333.701 320.047 333.121 319.99 332.595 319.771C332.068 319.553 331.618 319.184 331.301 318.71C330.984 318.237 330.815 317.679 330.815 317.11C330.815 316.346 331.119 315.613 331.659 315.072C332.2 314.532 332.933 314.229 333.698 314.229Z" fill="white"/>
<path opacity="0.4" fill-rule="evenodd" clip-rule="evenodd" d="M350.622 314.229C351.193 314.229 351.75 314.397 352.224 314.714C352.698 315.031 353.067 315.481 353.286 316.007C353.504 316.534 353.561 317.113 353.45 317.672C353.338 318.231 353.064 318.744 352.661 319.147C352.258 319.55 351.744 319.824 351.185 319.935C350.626 320.047 350.046 319.99 349.519 319.771C348.993 319.553 348.542 319.184 348.226 318.71C347.909 318.237 347.74 317.679 347.74 317.11C347.74 316.346 348.044 315.613 348.584 315.072C349.125 314.532 349.858 314.229 350.622 314.229Z" fill="white"/>
<path opacity="0.4" fill-rule="evenodd" clip-rule="evenodd" d="M367.547 314.229C368.117 314.229 368.675 314.397 369.149 314.714C369.623 315.031 369.992 315.481 370.21 316.007C370.428 316.534 370.486 317.113 370.374 317.672C370.263 318.231 369.989 318.744 369.585 319.147C369.182 319.55 368.669 319.824 368.109 319.935C367.55 320.047 366.971 319.99 366.444 319.771C365.917 319.553 365.467 319.184 365.15 318.71C364.834 318.237 364.665 317.679 364.665 317.11C364.668 316.347 364.973 315.616 365.513 315.076C366.053 314.537 366.784 314.232 367.547 314.229Z" fill="white"/>
<path opacity="0.4" d="M384.486 319.991C386.078 319.991 387.368 318.701 387.368 317.11C387.368 315.518 386.078 314.229 384.486 314.229C382.894 314.229 381.603 315.518 381.603 317.11C381.603 318.701 382.894 319.991 384.486 319.991Z" fill="white"/>
<path opacity="0.4" fill-rule="evenodd" clip-rule="evenodd" d="M401.41 314.229C401.98 314.229 402.538 314.397 403.012 314.714C403.486 315.031 403.855 315.481 404.073 316.007C404.291 316.534 404.349 317.113 404.237 317.672C404.126 318.231 403.852 318.744 403.448 319.147C403.045 319.55 402.532 319.824 401.972 319.935C401.413 320.047 400.834 319.99 400.307 319.771C399.78 319.553 399.33 319.184 399.013 318.71C398.697 318.237 398.528 317.679 398.528 317.11C398.528 316.346 398.831 315.613 399.372 315.072C399.912 314.532 400.646 314.229 401.41 314.229Z" fill="white"/>
<path opacity="0.4" fill-rule="evenodd" clip-rule="evenodd" d="M308.263 301.498C308.833 301.498 309.39 301.667 309.864 301.984C310.338 302.3 310.708 302.75 310.926 303.277C311.144 303.803 311.201 304.382 311.09 304.941C310.979 305.5 310.704 306.014 310.301 306.416C309.898 306.819 309.384 307.094 308.825 307.205C308.266 307.316 307.686 307.259 307.159 307.041C306.633 306.823 306.183 306.454 305.866 305.98C305.549 305.506 305.38 304.949 305.38 304.379C305.38 304.001 305.455 303.626 305.599 303.277C305.744 302.927 305.957 302.609 306.224 302.342C306.492 302.074 306.81 301.862 307.159 301.717C307.509 301.573 307.884 301.498 308.263 301.498Z" fill="white"/>
<path opacity="0.4" fill-rule="evenodd" clip-rule="evenodd" d="M325.228 301.498C325.798 301.498 326.356 301.667 326.83 301.984C327.304 302.3 327.673 302.75 327.891 303.277C328.11 303.803 328.167 304.382 328.056 304.941C327.944 305.5 327.67 306.014 327.267 306.416C326.863 306.819 326.35 307.094 325.791 307.205C325.232 307.316 324.652 307.259 324.125 307.041C323.599 306.823 323.148 306.454 322.832 305.98C322.515 305.506 322.346 304.949 322.346 304.379C322.346 304.001 322.42 303.626 322.565 303.277C322.71 302.927 322.922 302.609 323.19 302.342C323.458 302.074 323.776 301.862 324.125 301.717C324.475 301.573 324.85 301.498 325.228 301.498Z" fill="white"/>
<path opacity="0.4" fill-rule="evenodd" clip-rule="evenodd" d="M342.153 301.498C342.723 301.498 343.281 301.667 343.755 301.984C344.229 302.3 344.598 302.75 344.816 303.277C345.035 303.803 345.092 304.382 344.98 304.941C344.869 305.5 344.595 306.014 344.191 306.416C343.788 306.819 343.275 307.094 342.716 307.205C342.156 307.316 341.577 307.259 341.05 307.041C340.523 306.823 340.073 306.454 339.756 305.98C339.44 305.506 339.271 304.949 339.271 304.379C339.274 303.616 339.579 302.885 340.119 302.346C340.659 301.806 341.39 301.502 342.153 301.498Z" fill="white"/>
<path opacity="0.4" fill-rule="evenodd" clip-rule="evenodd" d="M359.05 301.498C359.621 301.498 360.178 301.667 360.652 301.984C361.126 302.3 361.495 302.75 361.714 303.277C361.932 303.803 361.989 304.382 361.878 304.941C361.766 305.5 361.492 306.014 361.089 306.416C360.686 306.819 360.172 307.094 359.613 307.205C359.054 307.316 358.474 307.259 357.947 307.041C357.421 306.823 356.97 306.454 356.654 305.98C356.337 305.506 356.168 304.949 356.168 304.379C356.168 303.615 356.472 302.882 357.012 302.342C357.553 301.802 358.286 301.498 359.05 301.498Z" fill="white"/>
<path opacity="0.4" fill-rule="evenodd" clip-rule="evenodd" d="M376.016 301.498C376.586 301.498 377.144 301.667 377.618 301.984C378.092 302.3 378.461 302.75 378.679 303.277C378.898 303.803 378.955 304.382 378.843 304.941C378.732 305.5 378.458 306.014 378.054 306.416C377.651 306.819 377.138 307.094 376.579 307.205C376.019 307.316 375.44 307.259 374.913 307.041C374.386 306.823 373.936 306.454 373.619 305.98C373.303 305.506 373.134 304.949 373.134 304.379C373.134 303.615 373.437 302.882 373.978 302.342C374.518 301.802 375.252 301.498 376.016 301.498Z" fill="white"/>
<path opacity="0.4" fill-rule="evenodd" clip-rule="evenodd" d="M392.941 301.498C393.511 301.498 394.069 301.667 394.543 301.984C395.017 302.3 395.386 302.75 395.604 303.277C395.822 303.803 395.88 304.382 395.768 304.941C395.657 305.5 395.383 306.014 394.979 306.416C394.576 306.819 394.063 307.094 393.504 307.205C392.944 307.316 392.365 307.259 391.838 307.041C391.311 306.823 390.861 306.454 390.544 305.98C390.228 305.506 390.059 304.949 390.059 304.379C390.062 303.616 390.367 302.885 390.907 302.346C391.447 301.806 392.178 301.502 392.941 301.498Z" fill="white"/>
<path opacity="0.4" fill-rule="evenodd" clip-rule="evenodd" d="M409.838 301.498C410.408 301.498 410.966 301.667 411.44 301.984C411.914 302.3 412.283 302.75 412.502 303.277C412.72 303.803 412.777 304.382 412.666 304.941C412.554 305.5 412.28 306.014 411.877 306.416C411.474 306.819 410.96 307.094 410.401 307.205C409.842 307.316 409.262 307.259 408.735 307.041C408.209 306.823 407.758 306.454 407.442 305.98C407.125 305.506 406.956 304.949 406.956 304.379C406.956 304.001 407.03 303.626 407.175 303.277C407.32 302.927 407.532 302.609 407.8 302.342C408.068 302.074 408.386 301.862 408.735 301.717C409.085 301.573 409.46 301.498 409.838 301.498Z" fill="white"/>
</g>
<path fill-rule="evenodd" clip-rule="evenodd" d="M203.351 179.474C211.587 199.724 214.689 214.473 217.297 232.981C219.192 246.508 206.22 248.813 199.165 239.127C187.456 223.034 181.471 207.572 175.665 189.887C168.761 168.855 195.431 160.075 203.351 179.474Z" fill="#F08156"/>
<path fill-rule="evenodd" clip-rule="evenodd" d="M195.006 192.412C200.647 204.074 200.84 214.789 200.496 224.187C200.153 233.585 183.352 227.946 183.352 227.946C183.352 227.946 184.725 202.002 195.006 192.412Z" fill="#F08156"/>
<path fill-rule="evenodd" clip-rule="evenodd" d="M323.252 189.558C311.585 199.765 291.503 218.15 281.812 230.25C274.057 239.95 285.93 248.333 296.252 241.473C313.891 229.77 329.662 221.73 345.228 204.059C358.543 188.995 337.418 177.169 323.252 189.558Z" fill="#184F96"/>
<path fill-rule="evenodd" clip-rule="evenodd" d="M315.634 228.99C323.167 223.878 330.357 218.277 337.157 212.224C335.692 205.818 333.044 199.741 329.346 194.307C321.015 209.083 317.569 215.984 315.634 228.99Z" fill="#002E6C"/>
<path fill-rule="evenodd" clip-rule="evenodd" d="M317.583 302.499C307.467 299.481 329.717 261.107 326.725 251.517C324.968 245.906 317.363 236 318.379 226.822C319.12 220.209 322.497 207.148 329.978 185.498C347.164 181.245 364.596 178.926 392.173 188.928C398.047 220.689 386.009 237.839 386.682 262.836C386.956 273.455 401.63 292.635 394.684 298.438C378.377 311.979 338.461 308.769 317.583 302.499Z" fill="#184F96"/>
<path fill-rule="evenodd" clip-rule="evenodd" d="M343.251 182.781C349.758 181.258 355.605 180.462 366.435 182.218C363.69 189.654 352.709 200.273 345.956 204.005C343.995 197.106 343.083 189.951 343.251 182.781Z" fill="#BA8B80"/>
<path fill-rule="evenodd" clip-rule="evenodd" d="M345.406 161.75L363.91 161.819L363.827 184.017C363.827 193.237 345.297 192.619 345.324 183.948L345.406 161.75Z" fill="#BA8B80"/>
<path fill-rule="evenodd" clip-rule="evenodd" d="M390.457 228.605C393.724 240.335 401.699 249.761 408.534 258.432C416.221 268.173 426.997 268.639 424.389 256.497C419.749 234.916 407.519 199.945 394.973 190.437C384.445 182.466 385.131 209.48 390.457 228.605Z" fill="#184F96"/>
<path fill-rule="evenodd" clip-rule="evenodd" d="M345.324 171.545L363.827 171.614V182.891C362.213 183.75 360.44 184.269 358.618 184.418C356.795 184.568 354.961 184.343 353.229 183.759C351.496 183.174 349.901 182.242 348.542 181.019C347.183 179.797 346.088 178.309 345.324 176.649V171.545Z" fill="#947169"/>
<path fill-rule="evenodd" clip-rule="evenodd" d="M359.16 115.431C323.691 110.287 323.403 175.098 349.744 177.17C377.897 179.241 397.718 121.015 359.16 115.431Z" fill="#BA8B80"/>
<path fill-rule="evenodd" clip-rule="evenodd" d="M339.573 141.869C339.949 141.896 340.309 142.035 340.606 142.267C340.904 142.5 341.124 142.816 341.241 143.175C341.357 143.534 341.363 143.92 341.259 144.282C341.154 144.645 340.944 144.968 340.654 145.21C340.365 145.452 340.009 145.602 339.634 145.641C339.258 145.68 338.88 145.606 338.547 145.428C338.214 145.251 337.941 144.977 337.765 144.644C337.588 144.311 337.515 143.932 337.555 143.557C337.576 143.313 337.644 143.076 337.757 142.859C337.87 142.642 338.025 142.45 338.212 142.293C338.4 142.136 338.617 142.018 338.85 141.945C339.084 141.872 339.329 141.847 339.573 141.869Z" fill="#00204A"/>
<path fill-rule="evenodd" clip-rule="evenodd" d="M357.335 143.843C357.711 143.869 358.07 144.007 358.368 144.239C358.665 144.471 358.886 144.786 359.003 145.144C359.12 145.502 359.127 145.887 359.024 146.25C358.92 146.612 358.711 146.936 358.423 147.178C358.135 147.421 357.781 147.573 357.406 147.614C357.031 147.654 356.653 147.582 356.319 147.407C355.986 147.231 355.712 146.96 355.534 146.628C355.355 146.296 355.28 145.919 355.317 145.544C355.359 145.051 355.595 144.595 355.973 144.276C356.352 143.957 356.841 143.801 357.335 143.843Z" fill="#00204A"/>
<path fill-rule="evenodd" clip-rule="evenodd" d="M347.465 156.467C343.347 154.848 344.72 152.145 346.45 148.564C343.224 151.157 341.206 155.479 347.465 156.467Z" fill="#947169"/>
<path fill-rule="evenodd" clip-rule="evenodd" d="M339.998 159.307C343.636 159.43 349.181 159.924 356.47 160.679C352.764 170.049 341.934 168.06 339.998 159.307Z" fill="#947169"/>
<path fill-rule="evenodd" clip-rule="evenodd" d="M373.12 137.342C372.846 145.903 376.593 152.049 379.27 152.584C381.946 153.119 384.884 138.151 373.12 137.342Z" fill="#002E6C"/>
<path fill-rule="evenodd" clip-rule="evenodd" d="M382.386 146.932C380.862 146.37 378.666 148.551 377.472 151.789C376.277 155.027 376.538 158.114 378.048 158.649C379.558 159.184 381.768 157.03 382.962 153.778C384.156 150.527 383.854 147.495 382.386 146.932Z" fill="#BA8B80"/>
<path fill-rule="evenodd" clip-rule="evenodd" d="M355.894 139.344C354.521 139.344 353.944 137.725 355.592 137.396C357.966 136.916 362.551 138.192 363.827 139.632C364.651 140.565 364.033 141.375 362.908 140.867C360.656 140.021 358.293 139.508 355.894 139.344Z" fill="#002E6C"/>
<path fill-rule="evenodd" clip-rule="evenodd" d="M343.746 138.083C344.899 138.467 345.873 137.012 344.487 136.272C343.229 135.744 341.876 135.484 340.512 135.507C339.149 135.531 337.805 135.838 336.567 136.409C335.551 136.985 335.963 138.069 337.088 137.781C339.308 137.486 341.562 137.588 343.746 138.083Z" fill="#002E6C"/>
<path fill-rule="evenodd" clip-rule="evenodd" d="M161.541 536.267C170.971 542.372 195.28 545.514 207.03 543.25C213.619 541.974 214.058 532.48 205.424 528.83C191.035 522.689 176.086 517.952 160.786 514.686C159.4 522.382 157.368 533.55 161.541 536.267Z" fill="#002E6C"/>
<path fill-rule="evenodd" clip-rule="evenodd" d="M190.476 523.356C184.656 526.196 166.126 527.102 158.439 521.6C155.282 456.72 158.233 437.746 160.182 403.035C161.376 381.879 191.863 384.719 191.012 407.439C189.337 452.755 192.096 506.906 190.476 523.356Z" fill="#4F91E8"/>
<path fill-rule="evenodd" clip-rule="evenodd" d="M157.272 274.62C159.784 290.685 160.786 308.658 157.368 325.876C155.007 354.495 147.759 387.82 145.33 416.426C144.149 430.694 113.484 430.941 113.471 413.558C113.471 368.284 106.072 323.805 115.008 272.781C127.376 272.795 144.918 274.62 157.272 274.62Z" fill="#4F91E8"/>
<path d="M145.11 291.592C141.802 296.641 131.521 305.174 127.444 307.891" stroke="#66A1ED" stroke-width="2.63548" stroke-linecap="round" stroke-linejoin="round"/>
<path fill-rule="evenodd" clip-rule="evenodd" d="M152.797 274.621C150.285 290.686 149.873 313.914 153.277 331.132C155.172 359.943 158.768 382.251 160.717 411.021C161.651 425.303 190.655 426.922 190.723 409.539C190.874 364.265 194.772 325.301 191.547 274.195L152.797 274.621Z" fill="#4F91E8"/>
<path d="M180.222 287.518C183.517 292.566 193.812 301.1 197.875 303.817" stroke="#66A1ED" stroke-width="2.63548" stroke-linecap="round" stroke-linejoin="round"/>
<path d="M166.125 290.59C165.851 296.832 166.702 310.867 163.861 311.293C161.019 311.718 157.615 311.869 157.615 311.869" stroke="#66A1ED" stroke-width="2.63548" stroke-linecap="round" stroke-linejoin="round"/>
<path d="M155.474 347.939C159.386 371.427 163.709 394.915 164.602 405.795C165.494 416.675 159.386 478.427 162.433 514.962" stroke="#66A1ED" stroke-width="2.63548" stroke-linecap="round" stroke-linejoin="round"/>
<path opacity="0.5" fill-rule="evenodd" clip-rule="evenodd" d="M156.572 367.132C159.111 352.123 161.033 337.992 159.715 312.254C158.178 327.524 155.968 341.957 154.376 351.218C155.076 355.471 155.899 360.602 156.572 367.132Z" fill="#1F4C87"/>
<path fill-rule="evenodd" clip-rule="evenodd" d="M110.78 543.923C119.771 550.645 143.834 555.379 155.707 553.883C162.364 553.046 163.421 543.607 155.048 539.395C141.094 532.334 126.49 526.636 111.439 522.383C109.559 529.86 106.786 540.945 110.78 543.923Z" fill="#002E6C"/>
<path fill-rule="evenodd" clip-rule="evenodd" d="M139.112 531.478C132.66 535.841 119.634 536.294 107.362 530.778C105.331 479.138 111.659 438.596 115.008 403.885C117.04 382.743 148.308 382.716 146.579 405.614C143.12 451.3 141.39 515.028 139.112 531.478Z" fill="#4F91E8"/>
<path d="M125.44 285.307C119.785 317.932 118.92 404.489 117.204 418.387C115.489 432.285 111.975 511.022 112.414 523.644" stroke="#66A1ED" stroke-width="2.63548" stroke-linecap="round" stroke-linejoin="round"/>
<path fill-rule="evenodd" clip-rule="evenodd" d="M195.83 225.352C200.346 225.544 207.017 225.119 209.281 227.191C211.546 229.262 205.85 219.631 195.843 220.55C193.771 221.675 193.386 223.857 195.83 225.352Z" fill="#E07348"/>
<path fill-rule="evenodd" clip-rule="evenodd" d="M198.657 171.833C200.441 199.272 197.133 221.114 194.539 240.074C192.425 255.413 199.536 267.596 195.431 289.712C167.978 300.317 137.78 300.935 110.973 287.736C106.127 280.698 118.865 262.904 118.618 245.988C118.302 225.408 103.697 200.946 105.647 173.191C134.321 154.862 187.758 161.406 198.657 171.833Z" fill="#FFA37F"/>
<path fill-rule="evenodd" clip-rule="evenodd" d="M130.642 233.216C123.271 230.609 117.04 227.549 118.138 225.958C119.84 223.516 130.491 229.621 136.311 229.635C134.39 228.606 131.219 226.685 131.727 225.409C133.498 221.046 154.046 236.042 151.809 241.983C148.075 251.916 115.722 242.476 116.957 238.415C117.383 237.043 120.279 239.431 127.197 240.117C120.457 238.402 112.977 236.138 114.061 233.421C114.651 231.912 123.669 236.165 129.16 236.865C123.395 234.643 112.963 231.034 114.061 229.278C115.488 227.001 124.493 232.283 130.642 233.216Z" fill="#FBC9BE"/>
<path fill-rule="evenodd" clip-rule="evenodd" d="M153.95 117.996C157.262 117.866 160.491 119.051 162.932 121.292C165.373 123.534 166.827 126.65 166.976 129.96L168.116 165.068C168.308 170.858 170.861 181.408 162.296 182.273C149.695 183.535 143.079 172.669 142.9 165.891L141.747 130.783C141.681 127.473 142.926 124.271 145.212 121.876C147.498 119.481 150.639 118.086 153.95 117.996Z" fill="#FBC9BE"/>
<path fill-rule="evenodd" clip-rule="evenodd" d="M167.91 158.814L142.282 147.221L142.9 165.921C150.175 169.584 162.941 167.608 167.91 158.814Z" fill="#D9ABA1"/>
<path fill-rule="evenodd" clip-rule="evenodd" d="M144.479 88.8418C167.169 82.4896 177.285 102.932 179.824 123.786C181.87 140.537 181.197 156.095 170.216 160.527C156.805 165.946 136.421 157.097 131.439 145.12C122.818 124.376 119.963 95.7016 144.479 88.8418Z" fill="#FBC9BE"/>
<path fill-rule="evenodd" clip-rule="evenodd" d="M163.97 116.047C163.623 116.199 163.229 116.208 162.875 116.07C162.521 115.933 162.236 115.66 162.083 115.313C161.93 114.965 161.922 114.571 162.059 114.217C162.197 113.864 162.47 113.579 162.817 113.426C166.07 112.054 170.436 111.574 173.469 113.742C175.006 114.826 174.114 116.486 172.343 115.868C169.582 115.221 166.702 115.282 163.97 116.047Z" fill="#233147"/>
<path fill-rule="evenodd" clip-rule="evenodd" d="M159.866 140.675C165.357 139.22 163.902 135.612 162.268 130.865C165.961 134.583 167.979 140.318 159.866 140.675Z" fill="#D9ABA1"/>
<path fill-rule="evenodd" clip-rule="evenodd" d="M172.961 139.893C168.925 142.486 160.415 145.188 151.96 144.955C157.052 148.262 170.998 144.845 172.961 139.893Z" fill="#D9ABA1"/>
<path fill-rule="evenodd" clip-rule="evenodd" d="M151.562 116.282C151.94 116.282 152.303 116.433 152.571 116.7C152.839 116.968 152.989 117.331 152.989 117.709C152.989 118.087 152.839 118.45 152.571 118.718C152.303 118.986 151.94 119.136 151.562 119.136C148.718 119.665 146.005 120.741 143.573 122.305C141.994 123.334 140.924 122.305 141.912 120.714C143.82 117.503 148.006 116.186 151.562 116.282Z" fill="#233147"/>
<path fill-rule="evenodd" clip-rule="evenodd" d="M169.433 146.096C166.063 147.341 162.597 148.309 159.07 148.991C161.088 150.843 168.733 148.991 169.433 146.096Z" fill="#D9ABA1"/>
<path fill-rule="evenodd" clip-rule="evenodd" d="M150.505 127.258C150.896 127.137 151.314 127.135 151.706 127.253C152.098 127.371 152.446 127.603 152.706 127.919C152.966 128.236 153.125 128.623 153.163 129.03C153.202 129.437 153.118 129.847 152.923 130.207C152.727 130.566 152.429 130.859 152.066 131.049C151.703 131.238 151.291 131.315 150.885 131.269C150.478 131.224 150.094 131.058 149.781 130.793C149.469 130.528 149.243 130.176 149.132 129.783C149.056 129.527 149.031 129.258 149.059 128.993C149.087 128.728 149.167 128.47 149.295 128.236C149.422 128.002 149.595 127.794 149.802 127.627C150.01 127.459 150.249 127.334 150.505 127.258Z" fill="#00204A"/>
<path fill-rule="evenodd" clip-rule="evenodd" d="M168.802 122.551C169.193 122.43 169.611 122.428 170.003 122.546C170.395 122.664 170.744 122.896 171.003 123.212C171.263 123.529 171.422 123.916 171.461 124.323C171.499 124.73 171.415 125.14 171.22 125.5C171.024 125.859 170.726 126.152 170.363 126.342C170 126.531 169.589 126.608 169.182 126.562C168.775 126.517 168.391 126.351 168.079 126.086C167.766 125.821 167.54 125.469 167.429 125.075C167.28 124.559 167.34 124.004 167.597 123.532C167.854 123.059 168.287 122.707 168.802 122.551Z" fill="#00204A"/>
<path fill-rule="evenodd" clip-rule="evenodd" d="M155.982 236.425C160.69 249.239 148.034 255.633 138.81 247.922C121.515 233.599 111.247 219.015 102.627 202.099C87.6102 172.601 114.981 155.452 135.241 194.278C144.067 211.181 147.663 213.554 155.982 236.425Z" fill="#F08156"/>
<path fill-rule="evenodd" clip-rule="evenodd" d="M144.492 210.455C140.924 214.036 136.504 224.943 137.066 235.288C143.655 230.211 148.377 217.205 148.377 217.205L144.492 210.455Z" fill="#E07348"/>
<path opacity="0.08" fill-rule="evenodd" clip-rule="evenodd" d="M358.968 150.101C362.167 150.801 364.459 152.845 364.102 154.725C363.745 156.604 360.863 157.468 357.678 156.81C354.494 156.151 352.187 154.066 352.544 152.186C352.901 150.307 355.784 149.401 358.968 150.101Z" fill="#FF5765"/>
<path opacity="0.08" fill-rule="evenodd" clip-rule="evenodd" d="M337.28 148.316C334.274 148.453 331.79 150.099 331.858 151.993C331.927 153.886 334.302 155.285 337.349 155.148C340.396 155.011 342.84 153.365 342.84 151.471C342.84 149.578 340.286 148.179 337.28 148.316Z" fill="#FF5765"/>
<path opacity="0.08" fill-rule="evenodd" clip-rule="evenodd" d="M172.097 127.93C175.281 127.519 178.109 128.685 178.383 130.523C178.658 132.362 176.297 134.186 173.112 134.639C169.928 135.092 167.086 133.885 166.812 132.046C166.537 130.208 168.898 128.328 172.097 127.93Z" fill="#FF5765"/>
<path opacity="0.08" fill-rule="evenodd" clip-rule="evenodd" d="M148.487 134.723C145.44 135.779 143.436 138.071 143.998 139.84C144.561 141.61 147.485 142.2 150.532 141.212C153.579 140.225 155.583 137.878 155.021 136.095C154.458 134.311 151.534 133.68 148.487 134.723Z" fill="#FF5765"/>
<path fill-rule="evenodd" clip-rule="evenodd" d="M258.202 192.975C257.804 195.65 261.167 198.353 262.32 201.206C268.676 217.313 273.301 228.015 280.055 239.621C286.163 250.158 300.219 240.609 296.238 229.085C291.338 214.871 283.047 204.842 276.321 192.179C275.113 189.902 275.388 185.607 273.096 184.839C267.921 183.083 258.847 188.461 258.202 192.975Z" fill="#184F96"/>
<path fill-rule="evenodd" clip-rule="evenodd" d="M439.707 209.574C443.07 213.69 438.156 222.951 436.962 228.974C434.821 240.032 433.118 249.937 427.806 260.46C422.192 271.573 407.217 264.576 410.319 252.531C413.064 242.117 416.345 233.323 419.543 224.268C421.629 218.341 420.339 207.05 427.449 205.061C429.71 204.542 432.074 204.692 434.25 205.494C436.427 206.295 438.323 207.713 439.707 209.574Z" fill="#184F96"/>
<path fill-rule="evenodd" clip-rule="evenodd" d="M342.304 159.662C345.228 159.841 349.016 160.184 353.601 160.637C353.272 162.531 341.906 161.268 342.304 159.662Z" fill="white"/>
<path fill-rule="evenodd" clip-rule="evenodd" d="M143.038 227.411C157.176 227 199.508 223.597 208.417 226.465C221.429 230.581 219.055 246.605 205.493 248.334C197.669 249.335 157.368 249.253 141.459 246.701C140.24 240.246 140.785 233.583 143.038 227.411Z" fill="#F08156"/>
<path fill-rule="evenodd" clip-rule="evenodd" d="M169.488 225.929C167.471 233.365 161.98 243.024 155.391 247.88C151.781 231.115 153.346 225.696 169.488 225.929Z" fill="#E07348"/>
<path fill-rule="evenodd" clip-rule="evenodd" d="M191.478 523.152C185.672 525.992 165.563 527.556 157.889 522.041C157.656 517.308 157.45 512.821 157.286 508.555C165.796 512.808 185.246 511.518 192 509.145C191.959 515.072 191.808 519.873 191.478 523.152Z" fill="#66A1ED"/>
<path fill-rule="evenodd" clip-rule="evenodd" d="M140.141 532.439C134.321 535.279 114.226 536.829 106.539 531.328C106.305 526.581 106.429 522.204 106.264 517.938C114.775 522.191 133.896 520.805 140.58 518.418C140.608 524.358 140.457 529.146 140.141 532.439Z" fill="#66A1ED"/>
<path fill-rule="evenodd" clip-rule="evenodd" d="M291.956 218.945C295.823 223.731 298.588 229.31 300.054 235.285C300.753 232.048 300.332 228.669 298.861 225.701C297.39 222.733 294.956 220.352 291.956 218.945Z" fill="#002E6C"/>
<path fill-rule="evenodd" clip-rule="evenodd" d="M416.866 231.939C412.57 237.537 411.458 247.552 410.36 252.519C407.601 245.385 410.758 235.424 416.866 231.939Z" fill="#002E6C"/>
<path fill-rule="evenodd" clip-rule="evenodd" d="M387.492 216.793C388.271 221.401 389.438 225.935 390.978 230.348C390.663 231.967 390.498 232.749 390.168 234.34C387.19 229.772 386.503 222.583 387.492 216.793Z" fill="#002E6C"/>
<path fill-rule="evenodd" clip-rule="evenodd" d="M340.492 115.156C337.28 128.258 368.577 148.303 385.694 146.711C402.81 145.12 379.27 104.194 340.492 115.156Z" fill="#002E6C"/>
<path fill-rule="evenodd" clip-rule="evenodd" d="M331.707 139.866C334.755 129.411 340.698 123.553 348.948 120.836C348.319 118.368 347.229 116.04 345.736 113.977C345.736 113.977 331.598 120.397 331.707 139.866Z" fill="#002E6C"/>
<path fill-rule="evenodd" clip-rule="evenodd" d="M128.185 99.2279C148.528 117.887 160.786 101.066 171.685 105.1C178.41 107.583 178.548 118.079 179.92 124.307C181.417 121.166 184.038 107.707 180.126 103.81C175.885 99.5297 183.956 85.0418 165.604 86.9213C158.082 87.6485 136.229 74.0935 128.185 99.2279Z" fill="#184F96"/>
<path fill-rule="evenodd" clip-rule="evenodd" d="M136.792 93.6312C142.996 105.156 138.165 110.548 132.839 115.13C127.513 119.712 138.494 135.613 128.268 137.356C124.397 131.676 113.347 111.137 120.91 106.926C124.85 104.717 119.332 91.0794 136.792 93.6312Z" fill="#184F96"/>
<path fill-rule="evenodd" clip-rule="evenodd" d="M174.444 103.797C165.137 92.2316 143.559 112.276 133.264 95.3185C145.165 76.2071 164.643 95.3185 170.161 89.9816C165.165 97.2118 143.792 87.8276 136.806 94.9618C141.514 100.998 170.998 88.6096 174.444 103.797Z" fill="#2F69B5"/>
<path fill-rule="evenodd" clip-rule="evenodd" d="M133.649 94.9353C122.97 95.8683 128.007 104.114 123.862 107.201C127.98 106.446 131.164 95.6899 136.106 97.0481C136.298 96.1015 136.188 94.7158 133.649 94.9353Z" fill="#2F69B5"/>
<path fill-rule="evenodd" clip-rule="evenodd" d="M124.809 130.222C126.442 129.399 129.201 131.594 130.958 135.051C132.715 138.509 132.839 142.035 131.219 142.858C129.599 143.681 126.826 141.486 125.056 138.042C123.285 134.599 123.189 131.045 124.809 130.222Z" fill="#FBC9BE"/>
<path fill-rule="evenodd" clip-rule="evenodd" d="M387.176 141.621C369.538 145.847 345.022 123.991 342.908 116.418C344.212 117.927 367.986 134.363 387.176 141.621Z" fill="#043A80"/>
<path fill-rule="evenodd" clip-rule="evenodd" d="M328.276 134.033C326.697 125.802 332.49 118.352 337.802 117.117C334.453 119.875 329.154 127.983 328.276 134.033Z" fill="#043A80"/>
<path fill-rule="evenodd" clip-rule="evenodd" d="M179.371 143.791C179.92 140.292 179.866 138.797 177.999 138.948C174.842 138.948 172.289 151.707 168.788 156.715C163.174 156.372 160.662 151.296 159.317 151.831C154.993 153.504 164.643 175.607 168.926 178.666C178.534 185.361 192.261 148.483 188.143 148.661C187.127 148.661 186.866 152.078 184.025 157.442C182.652 156.207 181.444 157.099 179.66 156.358C181.238 149.978 184.231 140.141 182.034 140.032C180.771 140.004 179.989 140.978 179.371 143.791Z" fill="#D9ABA1"/>
<path fill-rule="evenodd" clip-rule="evenodd" d="M176.132 155.054C178.369 147.041 180.428 139.742 178.369 139.729C175.199 139.729 172.879 154.601 169.324 159.609C163.71 159.266 161.088 152.337 159.715 152.872C155.735 154.464 166.441 175.784 170.779 178.83C180.387 185.539 192.508 148.935 188.225 147.522C186.715 147.028 187.841 149.826 184.203 156.261C186.825 149.401 188.527 141.005 185.494 140.291C183.819 139.88 182.831 150.773 180.181 155.987C181.76 149.607 184.999 138.316 182.803 138.151C179.989 138.055 179.083 149.127 176.132 155.054Z" fill="#FBC9BE"/>
<path fill-rule="evenodd" clip-rule="evenodd" d="M163.751 174.605C158.26 187.625 137.588 228.29 137.012 237.62C136.188 251.257 152.879 255.099 159.427 243.108C163.188 236.248 178.905 195.912 182.309 180.162C176.731 176.684 170.323 174.765 163.751 174.605Z" fill="#F08156"/>
<path fill-rule="evenodd" clip-rule="evenodd" d="M345.324 176.648C343.581 179.626 342.318 180.764 340.561 183.783C340.41 194.484 343.21 200.246 345.928 204.06C345.324 198.312 345.557 186.499 345.324 176.648Z" fill="#FFAF8F"/>
<path fill-rule="evenodd" clip-rule="evenodd" d="M364.033 175.045C365.222 177.72 366.236 180.47 367.067 183.277C363.553 191.797 355.564 201.688 345.955 204.021C353.903 198.464 361.109 186.391 364.033 175.045Z" fill="#FFAF8F"/>
<path fill-rule="evenodd" clip-rule="evenodd" d="M345.324 176.648C341.573 180.194 338.388 184.294 335.88 188.804C339.12 187.624 342.826 185.703 345.42 186.06C345.653 182.548 345.049 181.327 345.324 176.648Z" fill="#FFAF8F"/>
<path fill-rule="evenodd" clip-rule="evenodd" d="M364.033 175.045C367.863 181.068 371.061 186.021 372.132 192.606C368.217 190.11 364.048 188.036 359.696 186.418C361.522 182.784 362.976 178.973 364.033 175.045Z" fill="#FFAF8F"/>
<path fill-rule="evenodd" clip-rule="evenodd" d="M110.78 543.923C119.771 550.645 143.834 555.379 155.707 553.883C157.009 553.758 158.231 553.199 159.177 552.296C160.123 551.392 160.738 550.198 160.923 548.903C159.901 549.802 158.626 550.363 157.272 550.508C144.479 552.113 118.577 547.023 108.886 539.78L108.804 539.711C108.83 540.51 109.018 541.296 109.358 542.02C109.698 542.745 110.182 543.392 110.78 543.923Z" fill="#001E45"/>
<path fill-rule="evenodd" clip-rule="evenodd" d="M161.541 536.268C170.971 542.373 195.28 545.515 207.03 543.251C208.319 543.038 209.499 542.399 210.382 541.436C211.266 540.474 211.801 539.244 211.903 537.942C210.955 538.9 209.731 539.538 208.403 539.766C195.747 542.222 169.571 538.833 159.427 532.248H159.331C159.413 533.031 159.65 533.791 160.03 534.481C160.409 535.171 160.923 535.779 161.541 536.268Z" fill="#001E45"/>
<path fill-rule="evenodd" clip-rule="evenodd" d="M391.994 546.228C385.996 551.716 360.876 556.175 349.758 554.556C348.577 554.435 347.474 553.91 346.636 553.07C345.798 552.23 345.277 551.126 345.159 549.946C346.033 550.694 347.107 551.171 348.248 551.318C360.025 553.033 386.682 548.286 392.969 542.496C393.319 542.18 393.616 541.809 393.847 541.398C393.831 543.179 393.173 544.893 391.994 546.228Z" fill="#0C3D7D"/>
<path fill-rule="evenodd" clip-rule="evenodd" d="M349.675 536.802C343.43 541.974 318.105 545.294 307.123 543.154C305.951 542.976 304.876 542.4 304.078 541.523C303.281 540.646 302.81 539.521 302.745 538.338C303.58 539.131 304.63 539.661 305.764 539.861C317.459 542.125 344.198 538.613 350.856 533.138C351.215 532.835 351.525 532.479 351.775 532.082C351.666 533.856 350.92 535.532 349.675 536.802Z" fill="#0C3D7D"/>
<path fill-rule="evenodd" clip-rule="evenodd" d="M446.337 197.941C453.859 195.321 460.201 192.248 459.102 190.629C457.387 188.132 442.246 195.293 436.413 195.266C435.795 191.356 440.091 188.735 439.46 187.034C438.019 183.097 426.667 195.266 427.202 206.393C427.339 209.232 430.867 211.88 436.646 211.51C447.311 210.797 461.038 206.022 460.242 203.347C459.802 201.879 456.851 204.362 449.81 205.021C456.673 203.306 464.291 201.042 463.207 198.27C462.603 196.734 453.379 201.014 447.847 201.7C453.722 199.478 464.318 195.856 463.234 194.072C461.793 191.74 452.61 197.022 446.337 197.941Z" fill="#BA8B80"/>
<path fill-rule="evenodd" clip-rule="evenodd" d="M251.106 179.53C243.282 178.158 236.515 176.141 237.379 174.358C238.67 171.614 254.757 176.018 260.522 175.057C260.522 171.092 255.032 169.117 256.185 167.635C258.504 164.699 270.062 174.056 271.915 183.426C273.054 189.243 269.486 190.135 262.842 191.137C252.273 192.728 237.928 189.833 238.285 187.021C238.477 185.498 241.786 187.473 248.841 187.021C241.799 186.431 233.907 185.416 234.538 182.521C234.881 180.902 244.668 183.577 250.255 183.44C244.105 182.178 233.028 180.312 233.783 178.364C234.867 175.853 244.778 179.64 251.106 179.53Z" fill="#BA8B80"/>
<path fill-rule="evenodd" clip-rule="evenodd" d="M315.579 22.5906L332.27 26.6242C334.151 19.3391 338.173 16.5814 344.144 18.022C349.497 19.3116 352.105 22.3848 350.87 27.5023C348.069 39.1914 332.806 36.7081 328.276 55.4217L344.487 59.3181C347.918 45.0771 367.259 47.1762 371.706 28.7919C375.001 15.1546 366.737 5.04323 350.417 1.1057C332.97 -3.07879 320.026 4.72768 315.579 22.5906ZM333.835 66.4935C332.464 66.1005 331.026 65.9985 329.613 66.1942C328.2 66.3898 326.844 66.8786 325.631 67.6293C324.419 68.38 323.377 69.3759 322.572 70.5531C321.768 71.7302 321.218 73.0626 320.96 74.4646C319.463 80.6796 322.662 86.0851 328.756 87.5531C331.55 88.2262 334.497 87.7625 336.949 86.2637C339.401 84.765 341.157 82.3541 341.831 79.5614C342.504 76.7687 342.04 73.823 340.541 71.3723C339.041 68.9216 336.629 67.1666 333.835 66.4935Z" fill="#FFC3AD"/>
<path fill-rule="evenodd" clip-rule="evenodd" d="M225.122 98.9664L237.215 100.421C237.942 95.1386 240.537 92.8474 244.86 93.3688C248.745 93.8352 250.845 95.7971 250.351 99.5014C249.335 107.966 238.381 107.459 236.748 121.041L248.484 122.413C249.733 112.082 263.583 111.959 265.134 98.6371C266.329 88.759 259.644 82.3245 247.839 80.8976C235.224 79.3747 226.728 85.9602 225.081 98.9252L225.122 98.9664ZM241.593 128.422C240.595 128.26 239.573 128.307 238.594 128.562C237.615 128.817 236.7 129.274 235.908 129.903C235.115 130.532 234.463 131.32 233.994 132.215C233.524 133.111 233.246 134.095 233.179 135.104C233.007 136.598 233.282 138.109 233.969 139.447C234.656 140.784 235.725 141.888 237.04 142.618C238.356 143.349 239.858 143.673 241.357 143.549C242.857 143.426 244.286 142.861 245.464 141.926C246.642 140.99 247.516 139.727 247.975 138.295C248.434 136.863 248.458 135.327 248.044 133.881C247.63 132.435 246.796 131.145 245.647 130.174C244.499 129.202 243.088 128.592 241.593 128.422Z" fill="#FFC3AD"/>
<path fill-rule="evenodd" clip-rule="evenodd" d="M116.102 35.8613L128.016 32.939C126.822 27.7118 128.456 24.6249 132.724 23.5822C136.554 22.6492 139.217 23.7331 140.109 27.3962C142.168 35.7378 131.654 39.1403 134.948 52.5306L146.52 49.6907C144.021 39.5381 156.965 34.4893 153.753 21.387C151.365 11.6461 142.772 7.9418 131.146 10.8092C118.71 13.9098 113.041 23.0883 116.102 35.8613ZM142.182 57.8127C140.18 58.3021 138.454 59.5664 137.384 61.3276C136.315 63.0888 135.989 65.2025 136.479 67.2038C136.968 69.205 138.233 70.9299 139.995 71.999C141.757 73.068 143.872 73.3937 145.874 72.9043C147.877 72.4149 149.602 71.1505 150.672 69.3893C151.742 67.6282 152.067 65.5144 151.578 63.5132C151.088 61.5119 149.823 59.787 148.061 58.718C146.299 57.6489 144.184 57.3233 142.182 57.8127Z" fill="#FFC3AD"/>
</svg>
