<svg width="40" height="40" viewBox="0 0 40 40" fill="none" xmlns="http://www.w3.org/2000/svg">
<circle cx="20" cy="20" r="20" fill="#4A4A4A"/>
<mask id="mask0_0_2034" style="mask-type:alpha" maskUnits="userSpaceOnUse" x="10" y="11" width="21" height="21">
<rect x="10.3042" y="11.9706" width="20" height="20" fill="#C4C4C4"/>
</mask>
<g mask="url(#mask0_0_2034)">
<path d="M30.3042 15.7693C29.5604 16.0956 28.7679 16.3118 27.9417 16.4168C28.7917 15.9093 29.4405 15.1118 29.7454 14.1506C28.9529 14.6231 28.0779 14.9568 27.1454 15.1431C26.3929 14.3418 25.3204 13.8456 24.1504 13.8456C21.8804 13.8456 20.0529 15.6881 20.0529 17.9468C20.0529 18.2718 20.0804 18.5843 20.1479 18.8818C16.7392 18.7156 13.7229 17.0818 11.6967 14.5931C11.3429 15.2068 11.1354 15.9093 11.1354 16.6656C11.1354 18.0856 11.8667 19.3443 12.9567 20.0731C12.2979 20.0606 11.6517 19.8693 11.1042 19.5681C11.1042 19.5806 11.1042 19.5968 11.1042 19.6131C11.1042 21.6056 12.5254 23.2606 14.3892 23.6418C14.0554 23.7331 13.6917 23.7768 13.3142 23.7768C13.0517 23.7768 12.7867 23.7618 12.5379 23.7068C13.0692 25.3306 14.5767 26.5243 16.3692 26.5631C14.9742 27.6543 13.2029 28.3118 11.2854 28.3118C10.9492 28.3118 10.6267 28.2968 10.3042 28.2556C12.1204 29.4268 14.2729 30.0956 16.5942 30.0956C24.1392 30.0956 28.2642 23.8456 28.2642 18.4281C28.2642 18.2468 28.2579 18.0718 28.2492 17.8981C29.063 17.3206 29.7467 16.5993 30.3042 15.7693Z" fill="white"/>
</g>
</svg>
